<?xml version="1.0" encoding="UTF-8"?>
<!-- Generator: visioncortex VTracer -->
<svg id="svg" version="1.1" xmlns="http://www.w3.org/2000/svg" viewBox="0 0 511 369" style="display: block;"><path d="M0,0 L511,0 L511,369 L0,369 Z " transform="translate(0,0)" style="fill: #FBFBFB;"/><path d="M0,0 L12,0 L12,1 L14,1 L14,2 L15,2 L15,3 L17,3 L17,5 L18,5 L18,6 L19,6 L19,33 L20,33 L20,27 L52,27 L52,30 L55,30 L55,29 L56,29 L56,28 L59,28 L59,32 L60,32 L60,34 L61,34 L61,36 L63,36 L63,37 L64,37 L64,38 L66,38 L66,39 L72,39 L72,38 L74,38 L74,37 L76,37 L76,36 L77,36 L77,35 L78,35 L78,34 L79,34 L79,32 L80,32 L80,28 L121,28 L121,31 L122,31 L122,30 L124,30 L124,29 L126,29 L126,28 L127,28 L127,38 L126,38 L126,37 L124,37 L124,36 L122,36 L122,35 L120,35 L120,38 L98,38 L98,138 L64,138 L64,137 L63,137 L63,134 L62,134 L62,142 L61,142 L61,144 L60,144 L60,145 L59,145 L59,146 L58,146 L58,147 L60,147 L60,146 L61,146 L61,145 L62,145 L62,143 L63,143 L63,139 L142,139 L142,300 L139,300 L139,301 L140,301 L140,303 L141,303 L141,304 L142,304 L142,306 L132,306 L132,303 L130,303 L130,304 L128,304 L128,305 L126,305 L126,306 L125,306 L125,286 L106,286 L106,277 L109,277 L109,275 L108,275 L108,274 L107,274 L107,272 L106,272 L106,270 L105,270 L105,271 L104,271 L104,273 L103,273 L103,275 L102,275 L102,277 L105,277 L105,286 L86,286 L86,305 L1,305 L1,302 L-1,302 L-1,303 L-2,303 L-2,304 L-4,304 L-4,305 L-6,305 L-6,302 L-7,302 L-7,300 L-8,300 L-8,299 L-9,299 L-9,243 L-6,243 L-6,241 L-7,241 L-7,240 L-8,240 L-8,238 L-9,238 L-9,236 L-4,236 L-4,235 L-2,235 L-2,234 L-5,234 L-5,235 L-14,235 L-14,234 L-17,234 L-17,233 L-18,233 L-18,232 L-20,232 L-20,231 L-21,231 L-21,230 L-22,230 L-22,201 L-21,201 L-21,200 L-20,200 L-20,199 L-19,199 L-19,198 L-17,198 L-17,197 L-15,197 L-15,196 L-4,196 L-4,197 L-2,197 L-2,198 L0,198 L0,199 L1,199 L1,200 L2,200 L2,201 L3,201 L3,230 L2,230 L2,231 L1,231 L1,232 L3,232 L3,231 L4,231 L4,229 L5,229 L5,207 L27,207 L27,210 L29,210 L29,209 L30,209 L30,208 L32,208 L32,207 L34,207 L34,205 L32,205 L32,204 L30,204 L30,203 L29,203 L29,202 L27,202 L27,205 L5,205 L5,201 L4,201 L4,200 L3,200 L3,199 L2,199 L2,198 L1,198 L1,197 L-1,197 L-1,196 L-3,196 L-3,195 L-6,195 L-6,194 L-13,194 L-13,195 L-16,195 L-16,196 L-18,196 L-18,197 L-20,197 L-20,198 L-21,198 L-21,199 L-22,199 L-22,200 L-23,200 L-23,201 L-24,201 L-24,205 L-36,205 L-36,139 L-32,139 L-32,142 L-30,142 L-30,141 L-28,141 L-28,140 L-27,140 L-27,139 L-26,139 L-26,138 L-27,138 L-27,137 L-29,137 L-29,136 L-31,136 L-31,135 L-32,135 L-32,138 L-37,138 L-37,207 L-24,207 L-24,221 L-235,221 L-235,55 L-148,55 L-148,63 L-151,63 L-151,65 L-150,65 L-150,66 L-149,66 L-149,68 L-148,68 L-148,70 L-151,70 L-151,71 L-154,71 L-154,72 L-156,72 L-156,73 L-157,73 L-157,74 L-159,74 L-159,75 L-160,75 L-160,76 L-161,76 L-161,99 L-162,99 L-162,98 L-164,98 L-164,97 L-166,97 L-166,96 L-167,96 L-167,99 L-192,99 L-192,100 L-167,100 L-167,103 L-166,103 L-166,102 L-164,102 L-164,101 L-162,101 L-162,100 L-161,100 L-161,105 L-160,105 L-160,107 L-159,107 L-159,108 L-157,108 L-157,109 L-156,109 L-156,110 L-154,110 L-154,111 L-151,111 L-151,112 L-143,112 L-143,111 L-140,111 L-140,110 L-138,110 L-138,109 L-136,109 L-136,108 L-135,108 L-135,107 L-134,107 L-134,106 L-133,106 L-133,85 L6,85 L6,47 L9,47 L9,45 L8,45 L8,43 L7,43 L7,41 L6,41 L6,40 L11,40 L11,39 L13,39 L13,38 L10,38 L10,39 L1,39 L1,38 L-1,38 L-1,37 L-3,37 L-3,36 L-5,36 L-5,35 L-6,35 L-6,34 L-7,34 L-7,5 L-6,5 L-6,4 L-5,4 L-5,3 L-4,3 L-4,2 L-2,2 L-2,1 L0,1 Z " transform="translate(236,22)" style="fill: #FDFDFD;"/><path d="M0,0 L9,0 L9,1 L11,1 L11,11 L10,11 L10,12 L12,12 L12,4 L13,4 L13,6 L14,6 L14,12 L13,12 L13,14 L12,14 L12,16 L11,16 L11,17 L13,17 L13,15 L14,15 L14,13 L15,13 L15,9 L24,9 L24,211 L20,211 L20,208 L19,208 L19,209 L17,209 L17,210 L15,210 L15,211 L14,211 L14,206 L13,206 L13,205 L-19,205 L-19,210 L-27,210 L-27,181 L-24,181 L-24,179 L-25,179 L-25,177 L-26,177 L-26,176 L-27,176 L-27,174 L-28,174 L-28,175 L-29,175 L-29,177 L-30,177 L-30,179 L-31,179 L-31,181 L-28,181 L-28,211 L-19,211 L-19,237 L-18,237 L-18,207 L-3,207 L-3,237 L-2,237 L-2,207 L12,207 L12,238 L10,238 L10,239 L9,239 L9,240 L8,240 L8,241 L7,241 L7,242 L6,242 L6,243 L5,243 L5,244 L4,244 L4,245 L3,245 L3,246 L2,246 L2,247 L1,247 L1,248 L0,248 L0,249 L-1,249 L-1,250 L-2,250 L-2,251 L-4,251 L-4,287 L-72,287 L-72,285 L-71,285 L-71,283 L-70,283 L-70,281 L-73,281 L-73,119 L-117,119 L-117,20 L-96,20 L-96,23 L-94,23 L-94,22 L-92,22 L-92,21 L-89,21 L-89,31 L-88,31 L-88,32 L-61,32 L-61,44 L-60,44 L-60,32 L-29,32 L-29,9 L-13,9 L-13,12 L-11,12 L-11,11 L-9,11 L-9,10 L-8,10 L-8,9 L-6,9 L-6,13 L-5,13 L-5,15 L-4,15 L-4,16 L-3,16 L-3,14 L-4,14 L-4,12 L-5,12 L-5,6 L-4,6 L-4,4 L-3,4 L-3,12 L-1,12 L-1,11 L-2,11 L-2,1 L0,1 Z " transform="translate(452,41)" style="fill: #FDFDFD;"/><path d="M0,0 L89,0 L89,11 L92,11 L92,13 L91,13 L91,14 L90,14 L90,16 L89,16 L89,18 L90,18 L90,19 L95,19 L95,20 L97,20 L97,21 L99,21 L99,22 L100,22 L100,23 L101,23 L101,24 L102,24 L102,25 L103,25 L103,48 L135,48 L135,45 L136,45 L136,46 L138,46 L138,47 L141,47 L141,44 L142,44 L142,42 L143,42 L143,41 L144,41 L144,24 L145,24 L145,40 L146,40 L146,39 L147,39 L147,38 L155,38 L155,39 L158,39 L158,24 L159,24 L159,42 L160,42 L160,43 L161,43 L161,45 L162,45 L162,48 L221,48 L221,45 L223,45 L223,46 L225,46 L225,47 L227,47 L227,27 L228,27 L228,26 L229,26 L229,25 L230,25 L230,24 L232,24 L232,25 L231,25 L231,26 L230,26 L230,27 L229,27 L229,56 L230,56 L230,57 L231,57 L231,58 L233,58 L233,59 L235,59 L235,60 L237,60 L237,61 L246,61 L246,60 L249,60 L249,61 L247,61 L247,62 L242,62 L242,63 L243,63 L243,65 L244,65 L244,67 L245,67 L245,69 L242,69 L242,107 L103,107 L103,128 L102,128 L102,129 L101,129 L101,130 L100,130 L100,131 L98,131 L98,132 L96,132 L96,133 L93,133 L93,134 L85,134 L85,133 L82,133 L82,132 L80,132 L80,131 L79,131 L79,130 L77,130 L77,129 L76,129 L76,127 L75,127 L75,122 L74,122 L74,123 L72,123 L72,124 L70,124 L70,125 L69,125 L69,122 L44,122 L44,121 L69,121 L69,118 L70,118 L70,119 L72,119 L72,120 L74,120 L74,121 L75,121 L75,98 L76,98 L76,97 L77,97 L77,96 L79,96 L79,95 L80,95 L80,94 L82,94 L82,93 L85,93 L85,92 L88,92 L88,90 L87,90 L87,88 L86,88 L86,87 L85,87 L85,85 L88,85 L88,77 L1,77 L1,243 L212,243 L212,229 L199,229 L199,160 L204,160 L204,157 L205,157 L205,158 L207,158 L207,159 L209,159 L209,160 L210,160 L210,161 L209,161 L209,162 L208,162 L208,163 L206,163 L206,164 L204,164 L204,161 L200,161 L200,227 L212,227 L212,223 L213,223 L213,222 L214,222 L214,221 L215,221 L215,220 L216,220 L216,219 L218,219 L218,218 L220,218 L220,217 L223,217 L223,216 L230,216 L230,217 L233,217 L233,218 L235,218 L235,219 L237,219 L237,220 L238,220 L238,221 L239,221 L239,222 L240,222 L240,223 L241,223 L241,227 L263,227 L263,224 L265,224 L265,225 L266,225 L266,226 L268,226 L268,227 L270,227 L270,229 L268,229 L268,230 L266,230 L266,231 L265,231 L265,232 L263,232 L263,229 L241,229 L241,251 L240,251 L240,253 L239,253 L239,254 L237,254 L237,253 L238,253 L238,252 L239,252 L239,223 L238,223 L238,222 L237,222 L237,221 L236,221 L236,220 L234,220 L234,219 L232,219 L232,218 L221,218 L221,219 L219,219 L219,220 L217,220 L217,221 L216,221 L216,222 L215,222 L215,223 L214,223 L214,252 L215,252 L215,253 L216,253 L216,254 L218,254 L218,255 L219,255 L219,256 L217,256 L217,255 L215,255 L215,254 L214,254 L214,253 L213,253 L213,251 L212,251 L212,244 L0,244 Z " transform="translate(0,0)" style="fill: #FCFCFC;"/><path d="M0,0 L1,0 L1,1 L2,1 L2,2 L3,2 L3,23 L35,23 L35,20 L37,20 L37,21 L38,21 L38,22 L40,22 L40,23 L42,23 L42,21 L43,21 L43,19 L44,19 L44,18 L45,18 L45,1 L46,1 L46,16 L47,16 L47,15 L50,15 L50,16 L48,16 L48,17 L47,17 L47,25 L49,25 L49,24 L50,24 L50,23 L51,23 L51,22 L52,22 L52,21 L53,21 L53,22 L54,22 L54,23 L55,23 L55,24 L56,24 L56,25 L57,25 L57,26 L58,26 L58,17 L57,17 L57,16 L59,16 L59,1 L60,1 L60,18 L61,18 L61,19 L62,19 L62,21 L63,21 L63,24 L104,24 L104,20 L105,20 L105,21 L107,21 L107,22 L108,22 L108,23 L110,23 L110,11 L111,11 L111,10 L170,10 L170,24 L186,24 L186,21 L188,21 L188,22 L189,22 L189,23 L191,23 L191,24 L193,24 L193,21 L194,21 L194,19 L195,19 L195,18 L196,18 L196,1 L197,1 L197,16 L199,16 L199,17 L197,17 L197,27 L198,27 L198,28 L196,28 L196,20 L195,20 L195,22 L194,22 L194,28 L195,28 L195,30 L196,30 L196,32 L195,32 L195,31 L194,31 L194,29 L193,29 L193,25 L191,25 L191,26 L190,26 L190,27 L188,27 L188,28 L186,28 L186,25 L170,25 L170,48 L139,48 L139,60 L138,60 L138,48 L111,48 L111,47 L110,47 L110,37 L107,37 L107,38 L105,38 L105,39 L103,39 L103,36 L82,36 L82,135 L126,135 L126,297 L129,297 L129,299 L128,299 L128,301 L127,301 L127,303 L195,303 L195,267 L197,267 L197,266 L198,266 L198,265 L199,265 L199,264 L200,264 L200,263 L201,263 L201,262 L202,262 L202,261 L203,261 L203,260 L204,260 L204,259 L205,259 L205,258 L206,258 L206,257 L207,257 L207,256 L208,256 L208,255 L209,255 L209,254 L211,254 L211,255 L210,255 L210,256 L209,256 L209,257 L208,257 L208,258 L207,258 L207,259 L206,259 L206,260 L205,260 L205,261 L204,261 L204,262 L203,262 L203,263 L202,263 L202,264 L201,264 L201,265 L200,265 L200,266 L199,266 L199,267 L198,267 L198,268 L197,268 L197,304 L115,304 L115,307 L113,307 L113,306 L112,306 L112,305 L110,305 L110,304 L108,304 L108,321 L89,321 L89,325 L88,325 L88,321 L69,321 L69,304 L-16,304 L-16,307 L-18,307 L-18,306 L-20,306 L-20,305 L-21,305 L-21,304 L-23,304 L-23,305 L-24,305 L-24,308 L-25,308 L-25,310 L-27,310 L-27,311 L-28,311 L-28,312 L-30,312 L-30,313 L-37,313 L-37,312 L-40,312 L-40,311 L-41,311 L-41,310 L-42,310 L-42,309 L-43,309 L-43,307 L-44,307 L-44,305 L-45,305 L-45,303 L-80,303 L-80,324 L-77,324 L-77,325 L-78,325 L-78,327 L-79,327 L-79,328 L-80,328 L-80,330 L-82,330 L-82,328 L-83,328 L-83,326 L-84,326 L-84,324 L-81,324 L-81,302 L-45,302 L-45,300 L-44,300 L-44,298 L-43,298 L-43,296 L-42,296 L-42,295 L-41,295 L-41,278 L-42,278 L-42,277 L-43,277 L-43,275 L-44,275 L-44,273 L-41,273 L-41,270 L-146,270 L-146,274 L-147,274 L-147,266 L-148,266 L-148,264 L-147,264 L-147,265 L-146,265 L-146,269 L-40,269 L-40,273 L-37,273 L-37,274 L-38,274 L-38,276 L-39,276 L-39,278 L-40,278 L-40,293 L-38,293 L-38,294 L-40,294 L-40,304 L-37,304 L-37,302 L-35,302 L-35,301 L-34,301 L-34,300 L-33,300 L-33,301 L-32,301 L-32,302 L-29,302 L-29,303 L-28,303 L-28,294 L-30,294 L-30,293 L-28,293 L-28,240 L-31,240 L-31,238 L-30,238 L-30,237 L-29,237 L-29,235 L-28,235 L-28,233 L-32,233 L-32,232 L-34,232 L-34,231 L-31,231 L-31,232 L-22,232 L-22,231 L-19,231 L-19,232 L-21,232 L-21,233 L-26,233 L-26,235 L-25,235 L-25,237 L-24,237 L-24,238 L-23,238 L-23,240 L-26,240 L-26,296 L-25,296 L-25,297 L-24,297 L-24,299 L-23,299 L-23,302 L-21,302 L-21,301 L-19,301 L-19,300 L-18,300 L-18,299 L-16,299 L-16,302 L69,302 L69,283 L88,283 L88,274 L85,274 L85,272 L86,272 L86,270 L87,270 L87,268 L88,268 L88,267 L89,267 L89,269 L90,269 L90,271 L91,271 L91,272 L92,272 L92,274 L89,274 L89,283 L108,283 L108,303 L109,303 L109,302 L111,302 L111,301 L113,301 L113,300 L115,300 L115,303 L125,303 L125,301 L124,301 L124,300 L123,300 L123,298 L122,298 L122,297 L125,297 L125,136 L46,136 L46,140 L45,140 L45,142 L44,142 L44,143 L43,143 L43,144 L41,144 L41,143 L42,143 L42,142 L43,142 L43,141 L44,141 L44,139 L45,139 L45,131 L46,131 L46,134 L47,134 L47,135 L81,135 L81,35 L103,35 L103,32 L105,32 L105,33 L107,33 L107,34 L109,34 L109,35 L110,35 L110,25 L109,25 L109,26 L107,26 L107,27 L105,27 L105,28 L104,28 L104,25 L63,25 L63,29 L62,29 L62,31 L61,31 L61,32 L60,32 L60,33 L59,33 L59,34 L57,34 L57,35 L55,35 L55,36 L49,36 L49,35 L47,35 L47,34 L46,34 L46,33 L44,33 L44,31 L43,31 L43,29 L42,29 L42,25 L39,25 L39,26 L38,26 L38,27 L35,27 L35,24 L3,24 L3,30 L2,30 L2,3 L1,3 L1,2 L0,2 Z " transform="translate(253,25)" style="fill: #868686;"/><path d="M0,0 L89,0 L89,11 L92,11 L92,13 L91,13 L91,14 L90,14 L90,16 L89,16 L89,18 L90,18 L90,19 L95,19 L95,20 L97,20 L97,21 L99,21 L99,22 L100,22 L100,23 L101,23 L101,24 L102,24 L102,25 L103,25 L103,48 L135,48 L135,45 L136,45 L136,46 L138,46 L138,47 L141,47 L141,44 L142,44 L142,42 L143,42 L143,41 L144,41 L144,24 L145,24 L145,40 L146,40 L146,39 L147,39 L147,38 L155,38 L155,39 L158,39 L158,24 L159,24 L159,42 L160,42 L160,43 L161,43 L161,45 L162,45 L162,48 L221,48 L221,45 L223,45 L223,46 L225,46 L225,47 L227,47 L227,27 L228,27 L228,26 L229,26 L229,25 L230,25 L230,24 L232,24 L232,25 L231,25 L231,26 L230,26 L230,27 L229,27 L229,56 L228,56 L228,55 L227,55 L227,50 L225,50 L225,51 L223,51 L223,52 L221,52 L221,49 L162,49 L162,52 L161,52 L161,54 L160,54 L160,56 L159,56 L159,57 L157,57 L157,58 L155,58 L155,59 L147,59 L147,58 L146,58 L146,57 L144,57 L144,56 L143,56 L143,55 L142,55 L142,53 L141,53 L141,50 L139,50 L139,51 L137,51 L137,52 L135,52 L135,49 L103,49 L103,55 L102,55 L102,56 L100,56 L100,57 L99,57 L99,58 L97,58 L97,59 L95,59 L95,60 L83,60 L83,59 L81,59 L81,58 L79,58 L79,57 L78,57 L78,56 L77,56 L77,55 L76,55 L76,54 L75,54 L75,49 L73,49 L73,50 L72,50 L72,51 L70,51 L70,52 L69,52 L69,49 L44,49 L44,48 L69,48 L69,45 L71,45 L71,46 L73,46 L73,47 L74,47 L74,48 L75,48 L75,39 L74,39 L74,40 L72,40 L72,41 L70,41 L70,42 L68,42 L68,39 L44,39 L44,38 L68,38 L68,35 L71,35 L71,36 L72,36 L72,37 L74,37 L74,38 L75,38 L75,28 L74,28 L74,29 L73,29 L73,30 L71,30 L71,31 L69,31 L69,28 L44,28 L44,27 L68,27 L68,24 L70,24 L70,25 L71,25 L71,26 L73,26 L73,27 L75,27 L75,25 L76,25 L76,24 L77,24 L77,23 L78,23 L78,22 L79,22 L79,21 L81,21 L81,20 L83,20 L83,19 L87,19 L87,16 L86,16 L86,14 L85,14 L85,13 L84,13 L84,11 L87,11 L87,1 L1,1 L1,76 L89,76 L89,85 L92,85 L92,87 L91,87 L91,89 L90,89 L90,91 L89,91 L89,92 L94,92 L94,93 L96,93 L96,94 L92,94 L92,93 L85,93 L85,92 L88,92 L88,90 L87,90 L87,88 L86,88 L86,87 L85,87 L85,85 L88,85 L88,77 L1,77 L1,243 L212,243 L212,229 L199,229 L199,160 L204,160 L204,157 L205,157 L205,158 L207,158 L207,159 L209,159 L209,160 L210,160 L210,161 L209,161 L209,162 L208,162 L208,163 L206,163 L206,164 L204,164 L204,161 L200,161 L200,227 L212,227 L212,223 L213,223 L213,222 L214,222 L214,221 L215,221 L215,220 L216,220 L216,219 L218,219 L218,218 L220,218 L220,217 L223,217 L223,216 L230,216 L230,217 L233,217 L233,218 L235,218 L235,219 L237,219 L237,220 L238,220 L238,221 L239,221 L239,222 L240,222 L240,223 L241,223 L241,227 L263,227 L263,224 L265,224 L265,225 L266,225 L266,226 L268,226 L268,227 L270,227 L270,229 L268,229 L268,230 L266,230 L266,231 L265,231 L265,232 L263,232 L263,229 L241,229 L241,251 L240,251 L240,253 L239,253 L239,254 L237,254 L237,253 L238,253 L238,252 L239,252 L239,223 L238,223 L238,222 L237,222 L237,221 L236,221 L236,220 L234,220 L234,219 L232,219 L232,218 L221,218 L221,219 L219,219 L219,220 L217,220 L217,221 L216,221 L216,222 L215,222 L215,223 L214,223 L214,252 L215,252 L215,253 L216,253 L216,254 L218,254 L218,255 L219,255 L219,256 L217,256 L217,255 L215,255 L215,254 L214,254 L214,253 L213,253 L213,251 L212,251 L212,244 L0,244 Z " transform="translate(0,0)" style="fill: #F0F0F0;"/><path d="M0,0 L4,0 L4,5 L6,5 L6,0 L16,0 L16,5 L17,5 L17,0 L28,0 L28,5 L29,5 L29,0 L39,0 L39,5 L41,5 L41,0 L51,0 L51,5 L52,5 L52,0 L57,0 L57,28 L52,28 L52,23 L51,23 L51,28 L41,28 L41,23 L39,23 L39,28 L29,28 L29,23 L28,23 L28,28 L17,28 L17,23 L16,23 L16,28 L6,28 L6,23 L4,23 L4,28 L0,28 Z " transform="translate(365,37)" style="fill: #F9F9F9;"/><path d="M0,0 L89,0 L89,11 L92,11 L92,13 L91,13 L91,14 L90,14 L90,16 L89,16 L89,18 L90,18 L90,19 L95,19 L95,20 L97,20 L97,21 L99,21 L99,22 L100,22 L100,23 L101,23 L101,24 L99,24 L99,23 L98,23 L98,22 L96,22 L96,21 L94,21 L94,20 L84,20 L84,21 L82,21 L82,22 L80,22 L80,23 L79,23 L79,24 L78,24 L78,25 L77,25 L77,26 L76,26 L76,54 L75,54 L75,49 L73,49 L73,50 L72,50 L72,51 L70,51 L70,52 L69,52 L69,49 L44,49 L44,48 L69,48 L69,45 L71,45 L71,46 L73,46 L73,47 L74,47 L74,48 L75,48 L75,39 L74,39 L74,40 L72,40 L72,41 L70,41 L70,42 L68,42 L68,39 L44,39 L44,38 L68,38 L68,35 L71,35 L71,36 L72,36 L72,37 L74,37 L74,38 L75,38 L75,28 L74,28 L74,29 L73,29 L73,30 L71,30 L71,31 L69,31 L69,28 L44,28 L44,27 L68,27 L68,24 L70,24 L70,25 L71,25 L71,26 L73,26 L73,27 L75,27 L75,25 L76,25 L76,24 L77,24 L77,23 L78,23 L78,22 L79,22 L79,21 L81,21 L81,20 L83,20 L83,19 L87,19 L87,16 L86,16 L86,14 L85,14 L85,13 L84,13 L84,11 L87,11 L87,1 L1,1 L1,76 L89,76 L89,85 L92,85 L92,87 L91,87 L91,89 L90,89 L90,91 L89,91 L89,92 L94,92 L94,93 L96,93 L96,94 L92,94 L92,93 L85,93 L85,92 L88,92 L88,90 L87,90 L87,88 L86,88 L86,87 L85,87 L85,85 L88,85 L88,77 L1,77 L1,243 L212,243 L212,229 L199,229 L199,160 L204,160 L204,157 L205,157 L205,158 L207,158 L207,159 L209,159 L209,160 L210,160 L210,161 L209,161 L209,162 L208,162 L208,163 L206,163 L206,164 L204,164 L204,161 L200,161 L200,227 L212,227 L212,223 L213,223 L213,222 L214,222 L214,221 L215,221 L215,220 L216,220 L216,219 L218,219 L218,218 L220,218 L220,217 L223,217 L223,216 L230,216 L230,217 L233,217 L233,218 L235,218 L235,219 L237,219 L237,220 L238,220 L238,221 L239,221 L239,222 L240,222 L240,223 L241,223 L241,227 L263,227 L263,224 L265,224 L265,225 L266,225 L266,226 L268,226 L268,227 L270,227 L270,229 L268,229 L268,230 L266,230 L266,231 L265,231 L265,232 L263,232 L263,229 L241,229 L241,251 L240,251 L240,253 L239,253 L239,254 L237,254 L237,253 L238,253 L238,252 L239,252 L239,223 L238,223 L238,222 L237,222 L237,221 L236,221 L236,220 L234,220 L234,219 L232,219 L232,218 L221,218 L221,219 L219,219 L219,220 L217,220 L217,221 L216,221 L216,222 L215,222 L215,223 L214,223 L214,252 L215,252 L215,253 L216,253 L216,254 L218,254 L218,255 L219,255 L219,256 L217,256 L217,255 L215,255 L215,254 L214,254 L214,253 L213,253 L213,251 L212,251 L212,244 L0,244 Z " transform="translate(0,0)" style="fill: #212121;"/><path d="M0,0 L1,0 L1,1 L2,1 L2,2 L3,2 L3,23 L35,23 L35,20 L37,20 L37,21 L38,21 L38,22 L40,22 L40,23 L42,23 L42,21 L43,21 L43,19 L44,19 L44,18 L45,18 L45,1 L46,1 L46,16 L47,16 L47,15 L50,15 L50,16 L48,16 L48,17 L47,17 L47,25 L49,25 L49,24 L50,24 L50,23 L51,23 L51,22 L52,22 L52,21 L53,21 L53,22 L54,22 L54,23 L55,23 L55,24 L56,24 L56,25 L57,25 L57,26 L58,26 L58,17 L57,17 L57,16 L59,16 L59,1 L60,1 L60,18 L61,18 L61,19 L62,19 L62,21 L63,21 L63,24 L104,24 L104,20 L105,20 L105,21 L107,21 L107,22 L108,22 L108,23 L110,23 L110,11 L111,11 L111,10 L170,10 L170,24 L186,24 L186,21 L188,21 L188,22 L189,22 L189,23 L191,23 L191,24 L193,24 L193,21 L194,21 L194,19 L195,19 L195,18 L196,18 L196,1 L197,1 L197,16 L199,16 L199,17 L197,17 L197,27 L198,27 L198,28 L196,28 L196,20 L195,20 L195,22 L194,22 L194,28 L195,28 L195,30 L196,30 L196,32 L195,32 L195,31 L194,31 L194,29 L193,29 L193,25 L191,25 L191,26 L190,26 L190,27 L188,27 L188,28 L186,28 L186,25 L170,25 L170,48 L139,48 L139,60 L138,60 L138,48 L111,48 L111,47 L110,47 L110,37 L108,37 L108,36 L110,36 L110,25 L109,25 L109,26 L107,26 L107,27 L105,27 L105,28 L104,28 L104,25 L63,25 L63,29 L62,29 L62,31 L61,31 L61,32 L60,32 L60,33 L59,33 L59,34 L57,34 L57,35 L55,35 L55,36 L49,36 L49,35 L47,35 L47,34 L46,34 L46,33 L44,33 L44,31 L43,31 L43,29 L42,29 L42,25 L39,25 L39,26 L38,26 L38,27 L35,27 L35,24 L3,24 L3,30 L2,30 L2,3 L1,3 L1,2 L0,2 Z M112,12 L112,40 L116,40 L116,35 L118,35 L118,40 L128,40 L128,35 L129,35 L129,40 L140,40 L140,35 L141,35 L141,40 L151,40 L151,35 L153,35 L153,40 L163,40 L163,35 L164,35 L164,40 L169,40 L169,12 L164,12 L164,17 L163,17 L163,12 L153,12 L153,17 L151,17 L151,12 L141,12 L141,17 L140,17 L140,12 L129,12 L129,17 L128,17 L128,12 L118,12 L118,17 L116,17 L116,12 Z " transform="translate(253,25)" style="fill: #858585;"/><path d="M0,0 L3,0 L3,1 L1,1 L1,2 L-4,2 L-4,3 L-3,3 L-3,5 L-2,5 L-2,7 L-1,7 L-1,9 L-4,9 L-4,47 L-143,47 L-143,68 L-144,68 L-144,69 L-145,69 L-145,70 L-146,70 L-146,71 L-148,71 L-148,72 L-150,72 L-150,73 L-153,73 L-153,74 L-161,74 L-161,73 L-164,73 L-164,72 L-166,72 L-166,71 L-167,71 L-167,70 L-169,70 L-169,69 L-170,69 L-170,67 L-171,67 L-171,62 L-172,62 L-172,63 L-174,63 L-174,64 L-176,64 L-176,65 L-177,65 L-177,62 L-202,62 L-202,61 L-177,61 L-177,58 L-176,58 L-176,59 L-174,59 L-174,60 L-172,60 L-172,61 L-171,61 L-171,38 L-170,38 L-170,37 L-169,37 L-169,36 L-167,36 L-167,35 L-166,35 L-166,34 L-164,34 L-164,33 L-154,33 L-154,34 L-148,34 L-148,35 L-146,35 L-146,36 L-145,36 L-145,37 L-144,37 L-144,38 L-143,38 L-143,46 L-5,46 L-5,9 L-8,9 L-8,7 L-7,7 L-7,5 L-6,5 L-6,3 L-5,3 L-5,2 L-9,2 L-9,1 L0,1 Z " transform="translate(246,60)" style="fill: #EDEDED;"/><path d="M0,0 L37,0 L37,35 L19,35 L19,32 L34,32 L34,30 L33,30 L33,28 L32,28 L32,26 L31,26 L31,29 L32,29 L32,30 L6,30 L6,28 L7,28 L7,26 L8,26 L8,23 L9,23 L9,21 L10,21 L10,18 L9,18 L9,20 L8,20 L8,22 L7,22 L7,25 L6,25 L6,27 L5,27 L5,30 L4,30 L4,32 L18,32 L18,35 L0,35 Z " transform="translate(323,310)" style="fill: #F6F6F6;"/><path d="M0,0 L1,0 L1,1 L2,1 L2,24 L34,24 L34,21 L35,21 L35,22 L37,22 L37,23 L40,23 L40,20 L41,20 L41,18 L42,18 L42,17 L43,17 L43,0 L44,0 L44,16 L45,16 L45,15 L46,15 L46,14 L54,14 L54,15 L57,15 L57,0 L58,0 L58,18 L59,18 L59,19 L60,19 L60,21 L61,21 L61,24 L120,24 L120,21 L122,21 L122,22 L124,22 L124,23 L126,23 L126,3 L127,3 L127,2 L128,2 L128,1 L129,1 L129,0 L131,0 L131,1 L130,1 L130,2 L129,2 L129,3 L128,3 L128,32 L127,32 L127,31 L126,31 L126,26 L124,26 L124,27 L122,27 L122,28 L120,28 L120,25 L61,25 L61,28 L60,28 L60,30 L59,30 L59,32 L58,32 L58,33 L56,33 L56,34 L54,34 L54,35 L46,35 L46,34 L45,34 L45,33 L43,33 L43,32 L42,32 L42,31 L41,31 L41,29 L40,29 L40,26 L38,26 L38,27 L36,27 L36,28 L34,28 L34,25 L2,25 L2,31 L1,31 L1,32 L-1,32 L-1,31 L0,31 L0,30 L1,30 L1,2 L0,2 Z " transform="translate(101,24)" style="fill: #E8E8E8;"/><path d="M0,0 L89,0 L89,11 L92,11 L92,13 L91,13 L91,14 L90,14 L90,16 L89,16 L89,18 L90,18 L90,19 L95,19 L95,20 L97,20 L97,21 L99,21 L99,22 L100,22 L100,23 L101,23 L101,24 L99,24 L99,23 L98,23 L98,22 L96,22 L96,21 L94,21 L94,20 L84,20 L84,21 L82,21 L82,22 L80,22 L80,23 L79,23 L79,24 L78,24 L78,25 L77,25 L77,26 L76,26 L76,54 L75,54 L75,49 L73,49 L73,50 L72,50 L72,51 L70,51 L70,52 L69,52 L69,49 L44,49 L44,48 L69,48 L69,45 L71,45 L71,46 L73,46 L73,47 L74,47 L74,48 L75,48 L75,39 L74,39 L74,40 L72,40 L72,41 L70,41 L70,42 L68,42 L68,39 L44,39 L44,38 L68,38 L68,35 L71,35 L71,36 L72,36 L72,37 L74,37 L74,38 L75,38 L75,28 L74,28 L74,29 L73,29 L73,30 L71,30 L71,31 L69,31 L69,28 L44,28 L44,27 L68,27 L68,24 L70,24 L70,25 L71,25 L71,26 L73,26 L73,27 L75,27 L75,25 L76,25 L76,24 L77,24 L77,23 L78,23 L78,22 L79,22 L79,21 L81,21 L81,20 L83,20 L83,19 L87,19 L87,16 L86,16 L86,14 L85,14 L85,13 L84,13 L84,11 L87,11 L87,1 L1,1 L1,76 L89,76 L89,85 L92,85 L92,87 L91,87 L91,89 L90,89 L90,91 L89,91 L89,92 L94,92 L94,93 L96,93 L96,94 L92,94 L92,93 L85,93 L85,92 L88,92 L88,90 L87,90 L87,88 L86,88 L86,87 L85,87 L85,85 L88,85 L88,77 L0,77 Z " transform="translate(0,0)" style="fill: #222222;"/><path d="M0,0 L1,0 L1,17 L2,17 L2,18 L3,18 L3,20 L4,20 L4,22 L14,22 L14,227 L9,227 L9,230 L7,230 L7,229 L5,229 L5,228 L3,228 L3,252 L2,252 L2,253 L1,253 L1,222 L-13,222 L-13,252 L-14,252 L-14,222 L-29,222 L-29,252 L-30,252 L-30,226 L-39,226 L-39,196 L-42,196 L-42,194 L-41,194 L-41,192 L-40,192 L-40,190 L-39,190 L-39,189 L-38,189 L-38,191 L-37,191 L-37,192 L-36,192 L-36,194 L-35,194 L-35,196 L-38,196 L-38,225 L-30,225 L-30,220 L2,220 L2,221 L3,221 L3,226 L4,226 L4,225 L6,225 L6,224 L8,224 L8,223 L9,223 L9,226 L13,226 L13,24 L4,24 L4,28 L3,28 L3,30 L2,30 L2,32 L0,32 L0,31 L1,31 L1,29 L2,29 L2,27 L3,27 L3,21 L2,21 L2,19 L1,19 L1,27 L-1,27 L-1,26 L0,26 L0,16 L-2,16 L-2,15 L-11,15 L-11,14 L-10,14 L-10,13 L-3,13 L-3,14 L-1,14 L-1,15 L0,15 Z " transform="translate(463,26)" style="fill: #4A4A4A;"/><path d="M0,0 L1,0 L1,1 L2,1 L2,5 L108,5 L108,9 L111,9 L111,10 L110,10 L110,12 L109,12 L109,14 L108,14 L108,29 L110,29 L110,30 L108,30 L108,40 L111,40 L111,38 L113,38 L113,37 L114,37 L114,36 L115,36 L115,37 L116,37 L116,38 L117,38 L117,39 L118,39 L118,40 L119,40 L119,41 L120,41 L120,42 L122,42 L122,34 L123,34 L123,37 L124,37 L124,40 L123,40 L123,43 L122,43 L122,45 L121,45 L121,47 L120,47 L120,48 L118,48 L118,49 L111,49 L111,48 L108,48 L108,47 L107,47 L107,46 L106,46 L106,45 L105,45 L105,43 L104,43 L104,41 L103,41 L103,39 L68,39 L68,60 L71,60 L71,61 L70,61 L70,63 L69,63 L69,64 L68,64 L68,66 L66,66 L66,64 L65,64 L65,62 L64,62 L64,60 L67,60 L67,38 L103,38 L103,36 L104,36 L104,34 L105,34 L105,32 L106,32 L106,31 L107,31 L107,14 L106,14 L106,13 L105,13 L105,11 L104,11 L104,9 L107,9 L107,6 L2,6 L2,10 L1,10 L1,2 L0,2 Z " transform="translate(105,289)" style="fill: #E2E2E2;"/><path d="M0,0 L2,0 L2,1 L4,1 L4,2 L6,2 L6,3 L7,3 L7,4 L5,4 L5,5 L4,5 L4,6 L2,6 L2,7 L0,7 L0,4 L-21,4 L-21,103 L23,103 L23,265 L26,265 L26,267 L25,267 L25,269 L24,269 L24,270 L23,270 L23,271 L22,271 L22,269 L21,269 L21,268 L20,268 L20,266 L19,266 L19,265 L22,265 L22,104 L-57,104 L-57,108 L-58,108 L-58,110 L-59,110 L-59,111 L-60,111 L-60,112 L-62,112 L-62,111 L-61,111 L-61,110 L-60,110 L-60,109 L-59,109 L-59,107 L-58,107 L-58,99 L-57,99 L-57,102 L-56,102 L-56,103 L-22,103 L-22,3 L0,3 Z " transform="translate(356,57)" style="fill: #2D2D2D;"/><path d="M0,0 L2,0 L2,1 L1,1 L1,2 L0,2 L0,3 L-1,3 L-1,4 L-2,4 L-2,5 L-3,5 L-3,6 L-4,6 L-4,7 L-5,7 L-5,8 L-6,8 L-6,9 L-7,9 L-7,10 L-8,10 L-8,11 L-9,11 L-9,12 L-10,12 L-10,13 L-11,13 L-11,14 L-12,14 L-12,50 L-94,50 L-94,53 L-96,53 L-96,52 L-97,52 L-97,51 L-99,51 L-99,50 L-101,50 L-101,67 L-120,67 L-120,71 L-121,71 L-121,67 L-139,67 L-139,66 L-121,66 L-121,63 L-135,63 L-135,61 L-134,61 L-134,58 L-133,58 L-133,56 L-132,56 L-132,53 L-131,53 L-131,51 L-130,51 L-130,49 L-129,49 L-129,52 L-130,52 L-130,54 L-131,54 L-131,57 L-132,57 L-132,59 L-133,59 L-133,61 L-107,61 L-107,60 L-108,60 L-108,57 L-107,57 L-107,59 L-106,59 L-106,61 L-105,61 L-105,63 L-120,63 L-120,66 L-102,66 L-102,30 L-121,30 L-121,20 L-124,20 L-124,18 L-123,18 L-123,16 L-122,16 L-122,14 L-121,14 L-121,13 L-120,13 L-120,15 L-119,15 L-119,17 L-118,17 L-118,18 L-117,18 L-117,20 L-120,20 L-120,29 L-101,29 L-101,49 L-100,49 L-100,48 L-98,48 L-98,47 L-96,47 L-96,46 L-94,46 L-94,49 L-83,49 L-83,48 L-82,48 L-82,49 L-14,49 L-14,13 L-12,13 L-12,12 L-11,12 L-11,11 L-10,11 L-10,10 L-9,10 L-9,9 L-8,9 L-8,8 L-7,8 L-7,7 L-6,7 L-6,6 L-5,6 L-5,5 L-4,5 L-4,4 L-3,4 L-3,3 L-2,3 L-2,2 L-1,2 L-1,1 L0,1 Z " transform="translate(462,279)" style="fill: #444444;"/><path d="M0,0 L2,0 L2,15 L3,15 L3,14 L12,14 L12,15 L14,15 L14,0 L15,0 L15,17 L16,17 L16,18 L17,18 L17,28 L16,28 L16,30 L15,30 L15,31 L14,31 L14,32 L13,32 L13,34 L11,34 L11,35 L4,35 L4,34 L2,34 L2,33 L1,33 L1,32 L0,32 L0,31 L-1,31 L-1,30 L-2,30 L-2,28 L-3,28 L-3,21 L-2,21 L-2,19 L-1,19 L-1,17 L0,17 Z " transform="translate(281,136)" style="fill: #C6C6C6;"/><path d="M0,0 L1,0 L1,1 L3,1 L3,2 L5,2 L5,3 L6,3 L6,4 L5,4 L5,5 L4,5 L4,6 L2,6 L2,7 L0,7 L0,4 L-4,4 L-4,70 L8,70 L8,66 L9,66 L9,65 L10,65 L10,64 L11,64 L11,63 L12,63 L12,62 L14,62 L14,61 L16,61 L16,60 L19,60 L19,59 L26,59 L26,60 L29,60 L29,61 L31,61 L31,62 L33,62 L33,63 L34,63 L34,64 L35,64 L35,65 L36,65 L36,66 L37,66 L37,70 L59,70 L59,67 L61,67 L61,68 L62,68 L62,69 L64,69 L64,70 L66,70 L66,72 L64,72 L64,73 L62,73 L62,74 L61,74 L61,75 L59,75 L59,72 L37,72 L37,94 L36,94 L36,96 L35,96 L35,97 L33,97 L33,96 L34,96 L34,95 L35,95 L35,66 L34,66 L34,65 L33,65 L33,64 L32,64 L32,63 L30,63 L30,62 L28,62 L28,61 L17,61 L17,62 L15,62 L15,63 L13,63 L13,64 L12,64 L12,65 L11,65 L11,66 L10,66 L10,95 L11,95 L11,96 L12,96 L12,97 L14,97 L14,98 L15,98 L15,99 L13,99 L13,98 L11,98 L11,97 L10,97 L10,96 L9,96 L9,94 L8,94 L8,87 L9,87 L9,86 L8,86 L8,72 L-5,72 L-5,3 L0,3 Z " transform="translate(204,157)" style="fill: #808080;"/><path d="M0,0 L1,0 L1,1 L2,1 L2,2 L3,2 L3,23 L35,23 L35,20 L37,20 L37,21 L38,21 L38,22 L40,22 L40,23 L42,23 L42,21 L43,21 L43,19 L44,19 L44,18 L45,18 L45,1 L46,1 L46,16 L47,16 L47,15 L50,15 L50,16 L48,16 L48,17 L47,17 L47,25 L49,25 L49,24 L50,24 L50,23 L51,23 L51,22 L52,22 L52,21 L53,21 L53,22 L54,22 L54,23 L55,23 L55,24 L56,24 L56,25 L57,25 L57,26 L58,26 L58,17 L59,17 L59,27 L58,27 L58,28 L60,28 L60,20 L61,20 L61,22 L62,22 L62,28 L61,28 L61,30 L60,30 L60,33 L59,33 L59,34 L57,34 L57,35 L55,35 L55,36 L49,36 L49,35 L47,35 L47,34 L46,34 L46,33 L44,33 L44,31 L43,31 L43,29 L42,29 L42,25 L39,25 L39,26 L38,26 L38,27 L35,27 L35,24 L3,24 L3,30 L2,30 L2,3 L1,3 L1,2 L0,2 Z " transform="translate(253,25)" style="fill: #BBBBBB;"/><path d="M0,0 L6,0 L6,2 L7,2 L7,1 L8,1 L8,0 L11,0 L11,1 L13,1 L13,0 L16,0 L16,3 L17,3 L17,2 L18,2 L18,1 L19,1 L19,0 L23,0 L23,1 L25,1 L25,9 L24,9 L24,10 L23,10 L23,12 L22,12 L22,15 L20,15 L20,14 L18,14 L18,13 L17,13 L17,12 L15,12 L15,15 L-1,15 L-1,2 L0,2 Z " transform="translate(424,34)" style="fill: #EEEEEE;"/><path d="M0,0 L2,0 L2,14 L5,14 L5,13 L11,13 L11,14 L13,14 L13,15 L14,15 L14,0 L15,0 L15,17 L16,17 L16,18 L15,18 L15,27 L13,27 L13,26 L12,26 L12,25 L11,25 L11,24 L10,24 L10,23 L9,23 L9,22 L7,22 L7,23 L6,23 L6,24 L5,24 L5,25 L4,25 L4,26 L3,26 L3,27 L0,27 L0,19 L-1,19 L-1,21 L-2,21 L-2,27 L-3,27 L-3,25 L-5,25 L-5,26 L-7,26 L-7,27 L-8,27 L-8,28 L-10,28 L-10,25 L-75,25 L-75,24 L-10,24 L-10,21 L-7,21 L-7,22 L-6,22 L-6,23 L-4,23 L-4,24 L-3,24 L-3,20 L-2,20 L-2,18 L-1,18 L-1,17 L0,17 Z " transform="translate(89,271)" style="fill: #5B5B5B;"/><path d="M0,0 L3,0 L3,1 L1,1 L1,2 L-4,2 L-4,3 L-3,3 L-3,5 L-2,5 L-2,7 L-1,7 L-1,9 L-4,9 L-4,47 L-143,47 L-143,68 L-144,68 L-144,69 L-145,69 L-145,70 L-146,70 L-146,71 L-148,71 L-148,72 L-150,72 L-150,73 L-153,73 L-153,74 L-161,74 L-161,73 L-164,73 L-164,72 L-166,72 L-166,71 L-167,71 L-167,70 L-165,70 L-165,71 L-163,71 L-163,72 L-159,72 L-159,73 L-154,73 L-154,72 L-151,72 L-151,71 L-149,71 L-149,70 L-147,70 L-147,69 L-146,69 L-146,68 L-145,68 L-145,67 L-144,67 L-144,39 L-145,39 L-145,38 L-146,38 L-146,37 L-147,37 L-147,36 L-148,36 L-148,35 L-146,35 L-146,36 L-145,36 L-145,37 L-144,37 L-144,38 L-143,38 L-143,46 L-5,46 L-5,9 L-8,9 L-8,7 L-7,7 L-7,5 L-6,5 L-6,3 L-5,3 L-5,2 L-9,2 L-9,1 L0,1 Z " transform="translate(246,60)" style="fill: #5C5C5C;"/><path d="M0,0 L9,0 L9,1 L11,1 L11,11 L10,11 L10,12 L12,12 L12,4 L13,4 L13,6 L14,6 L14,12 L13,12 L13,14 L12,14 L12,16 L11,16 L11,18 L9,18 L9,19 L7,19 L7,20 L2,20 L2,19 L0,19 L0,18 L-2,18 L-2,17 L-3,17 L-3,14 L-4,14 L-4,12 L-5,12 L-5,6 L-4,6 L-4,4 L-3,4 L-3,12 L-1,12 L-1,11 L-2,11 L-2,1 L0,1 Z " transform="translate(452,41)" style="fill: #D8D8D8;"/><path d="M0,0 L1,0 L1,11 L4,11 L4,13 L3,13 L3,14 L2,14 L2,16 L1,16 L1,18 L2,18 L2,19 L7,19 L7,20 L9,20 L9,21 L11,21 L11,22 L12,22 L12,23 L13,23 L13,24 L11,24 L11,23 L10,23 L10,22 L8,22 L8,21 L6,21 L6,20 L-4,20 L-4,21 L-6,21 L-6,22 L-8,22 L-8,23 L-9,23 L-9,24 L-10,24 L-10,25 L-11,25 L-11,26 L-12,26 L-12,54 L-13,54 L-13,49 L-15,49 L-15,50 L-16,50 L-16,51 L-18,51 L-18,52 L-19,52 L-19,49 L-44,49 L-44,48 L-19,48 L-19,45 L-17,45 L-17,46 L-15,46 L-15,47 L-14,47 L-14,48 L-13,48 L-13,39 L-14,39 L-14,40 L-16,40 L-16,41 L-18,41 L-18,42 L-20,42 L-20,39 L-44,39 L-44,38 L-20,38 L-20,35 L-17,35 L-17,36 L-16,36 L-16,37 L-14,37 L-14,38 L-13,38 L-13,28 L-14,28 L-14,29 L-15,29 L-15,30 L-17,30 L-17,31 L-19,31 L-19,28 L-44,28 L-44,27 L-20,27 L-20,24 L-18,24 L-18,25 L-17,25 L-17,26 L-15,26 L-15,27 L-13,27 L-13,25 L-12,25 L-12,24 L-11,24 L-11,23 L-10,23 L-10,22 L-9,22 L-9,21 L-7,21 L-7,20 L-5,20 L-5,19 L-1,19 L-1,16 L-2,16 L-2,14 L-3,14 L-3,13 L-4,13 L-4,11 L-1,11 L-1,1 L0,1 Z " transform="translate(88,0)" style="fill: #2C2C2C;"/><path d="M0,0 L1,0 L1,2 L2,2 L2,3 L3,3 L3,5 L4,5 L4,7 L1,7 L1,36 L9,36 L9,31 L41,31 L41,32 L42,32 L42,37 L41,37 L41,38 L43,38 L43,39 L42,39 L42,63 L41,63 L41,64 L40,64 L40,33 L26,33 L26,63 L25,63 L25,33 L10,33 L10,63 L9,63 L9,37 L0,37 L0,7 L-3,7 L-3,5 L-2,5 L-2,3 L-1,3 L-1,1 L0,1 Z " transform="translate(424,215)" style="fill: #797979;"/><path d="M0,0 L57,0 L57,4 L0,4 Z " transform="translate(365,67)" style="fill: #FFFFFF;"/><path d="M0,0 L2,0 L2,1 L1,1 L1,2 L0,2 L0,3 L-1,3 L-1,4 L-2,4 L-2,5 L-3,5 L-3,6 L-4,6 L-4,7 L-5,7 L-5,8 L-6,8 L-6,9 L-7,9 L-7,10 L-8,10 L-8,11 L-9,11 L-9,12 L-10,12 L-10,13 L-11,13 L-11,14 L-12,14 L-12,50 L-94,50 L-94,53 L-96,53 L-96,52 L-97,52 L-97,51 L-99,51 L-99,50 L-100,50 L-100,48 L-98,48 L-98,47 L-96,47 L-96,46 L-94,46 L-94,49 L-83,49 L-83,48 L-82,48 L-82,49 L-14,49 L-14,13 L-12,13 L-12,12 L-11,12 L-11,11 L-10,11 L-10,10 L-9,10 L-9,9 L-8,9 L-8,8 L-7,8 L-7,7 L-6,7 L-6,6 L-5,6 L-5,5 L-4,5 L-4,4 L-3,4 L-3,3 L-2,3 L-2,2 L-1,2 L-1,1 L0,1 Z " transform="translate(462,279)" style="fill: #626262;"/><path d="M0,0 L2,0 L2,1 L1,1 L1,2 L0,2 L0,3 L-1,3 L-1,31 L0,31 L0,32 L1,32 L1,33 L2,33 L2,34 L4,34 L4,35 L6,35 L6,36 L9,36 L9,37 L15,37 L15,36 L18,36 L18,35 L20,35 L20,34 L22,34 L22,33 L23,33 L23,32 L24,32 L24,31 L25,31 L25,3 L24,3 L24,2 L23,2 L23,1 L22,1 L22,0 L24,0 L24,1 L25,1 L25,2 L26,2 L26,21 L58,21 L58,18 L59,18 L59,19 L61,19 L61,20 L62,20 L62,21 L64,21 L64,23 L62,23 L62,24 L61,24 L61,25 L59,25 L59,26 L58,26 L58,23 L26,23 L26,32 L25,32 L25,33 L24,33 L24,34 L23,34 L23,35 L21,35 L21,36 L19,36 L19,37 L17,37 L17,38 L7,38 L7,37 L5,37 L5,36 L3,36 L3,35 L1,35 L1,34 L0,34 L0,33 L-1,33 L-1,32 L-2,32 L-2,2 L-1,2 L-1,1 L0,1 Z " transform="translate(213,138)" style="fill: #464646;"/><path d="M0,0 L1,0 L1,1 L2,1 L2,5 L108,5 L108,9 L111,9 L111,10 L110,10 L110,12 L109,12 L109,14 L108,14 L108,29 L110,29 L110,30 L108,30 L108,40 L109,40 L109,41 L108,41 L108,42 L107,42 L107,34 L105,34 L105,32 L106,32 L106,31 L107,31 L107,14 L106,14 L106,13 L105,13 L105,11 L104,11 L104,9 L107,9 L107,6 L2,6 L2,10 L1,10 L1,2 L0,2 Z " transform="translate(105,289)" style="fill: #656565;"/><path d="M0,0 L1,0 L1,2 L2,2 L2,12 L1,12 L1,14 L-1,14 L-1,15 L-3,15 L-3,16 L-5,16 L-5,17 L-10,17 L-10,16 L-12,16 L-12,15 L-14,15 L-14,14 L-15,14 L-15,13 L-16,13 L-16,11 L-17,11 L-17,3 L-16,3 L-16,1 L-15,1 L-15,9 L-12,9 L-12,8 L-11,8 L-11,7 L-10,7 L-10,6 L-9,6 L-9,5 L-8,5 L-8,4 L-6,4 L-6,5 L-5,5 L-5,6 L-4,6 L-4,7 L-3,7 L-3,8 L-2,8 L-2,9 L0,9 Z " transform="translate(104,289)" style="fill: #E5E5E5;"/><path d="M0,0 L1,0 L1,1 L2,1 L2,24 L34,24 L34,21 L35,21 L35,22 L37,22 L37,23 L40,23 L40,20 L41,20 L41,18 L42,18 L42,17 L43,17 L43,0 L44,0 L44,16 L45,16 L45,17 L44,17 L44,26 L45,26 L45,25 L46,25 L46,24 L47,24 L47,23 L48,23 L48,22 L49,22 L49,21 L52,21 L52,22 L53,22 L53,23 L54,23 L54,24 L55,24 L55,26 L54,26 L54,25 L53,25 L53,24 L52,24 L52,23 L51,23 L51,22 L50,22 L50,23 L49,23 L49,24 L48,24 L48,25 L47,25 L47,26 L46,26 L46,27 L45,27 L45,28 L43,28 L43,19 L42,19 L42,21 L41,21 L41,28 L42,28 L42,30 L43,30 L43,31 L44,31 L44,32 L45,32 L45,33 L43,33 L43,32 L42,32 L42,31 L41,31 L41,29 L40,29 L40,26 L38,26 L38,27 L36,27 L36,28 L34,28 L34,25 L2,25 L2,31 L1,31 L1,32 L-1,32 L-1,31 L0,31 L0,30 L1,30 L1,2 L0,2 Z " transform="translate(101,24)" style="fill: #404040;"/><path d="M0,0 L2,0 L2,1 L1,1 L1,2 L0,2 L0,3 L-1,3 L-1,32 L-2,32 L-2,31 L-3,31 L-3,26 L-5,26 L-5,27 L-7,27 L-7,28 L-9,28 L-9,25 L-68,25 L-68,28 L-69,28 L-69,30 L-70,30 L-70,27 L-69,27 L-69,22 L-70,22 L-70,19 L-69,19 L-69,21 L-68,21 L-68,24 L-9,24 L-9,21 L-7,21 L-7,22 L-5,22 L-5,23 L-3,23 L-3,3 L-2,3 L-2,2 L-1,2 L-1,1 L0,1 Z " transform="translate(230,24)" style="fill: #515151;"/><path d="M0,0 L4,0 L4,1 L6,1 L6,2 L8,2 L8,3 L9,3 L9,4 L10,4 L10,5 L11,5 L11,6 L12,6 L12,10 L34,10 L34,7 L36,7 L36,8 L37,8 L37,9 L39,9 L39,10 L41,10 L41,12 L39,12 L39,13 L37,13 L37,14 L36,14 L36,15 L34,15 L34,12 L12,12 L12,34 L11,34 L11,36 L10,36 L10,37 L8,37 L8,36 L9,36 L9,35 L10,35 L10,6 L9,6 L9,5 L8,5 L8,4 L7,4 L7,3 L5,3 L5,2 L3,2 L3,1 L0,1 Z " transform="translate(229,217)" style="fill: #868686;"/><path d="M0,0 L1,0 L1,18 L2,18 L2,19 L1,19 L1,28 L-1,28 L-1,27 L-2,27 L-2,24 L-3,24 L-3,23 L-4,23 L-4,22 L-5,22 L-5,21 L-8,21 L-8,22 L-9,22 L-9,23 L-10,23 L-10,24 L-11,24 L-11,25 L-12,25 L-12,26 L-13,26 L-13,17 L-12,17 L-12,15 L-11,15 L-11,14 L-3,14 L-3,15 L0,15 Z " transform="translate(158,24)" style="fill: #C2C2C2;"/><path d="M0,0 L2,0 L2,5 L12,5 L12,0 L13,0 L13,5 L24,5 L24,0 L25,0 L25,5 L35,5 L35,0 L37,0 L37,5 L47,5 L47,6 L53,6 L53,7 L-5,7 L-5,5 L0,5 Z " transform="translate(369,60)" style="fill: #808080;"/><path d="M0,0 L1,0 L1,15 L3,15 L3,16 L1,16 L1,26 L2,26 L2,27 L0,27 L0,19 L-1,19 L-1,21 L-2,21 L-2,27 L-1,27 L-1,29 L0,29 L0,31 L-1,31 L-1,30 L-2,30 L-2,28 L-3,28 L-3,24 L-5,24 L-5,25 L-6,25 L-6,26 L-8,26 L-8,27 L-10,27 L-10,24 L-26,24 L-26,46 L-27,46 L-27,40 L-33,40 L-33,34 L-32,34 L-32,39 L-27,39 L-27,10 L-26,10 L-26,23 L-10,23 L-10,20 L-8,20 L-8,21 L-7,21 L-7,22 L-5,22 L-5,23 L-3,23 L-3,20 L-2,20 L-2,18 L-1,18 L-1,17 L0,17 Z " transform="translate(449,26)" style="fill: #373737;"/><path d="M0,0 L1,0 L1,1 L2,1 L2,5 L3,5 L3,1 L4,1 L4,0 L6,0 L6,4 L7,4 L7,5 L8,5 L8,0 L10,0 L10,1 L9,1 L9,6 L10,6 L10,3 L11,3 L11,2 L14,2 L14,3 L15,3 L15,4 L16,4 L16,2 L19,2 L19,3 L20,3 L20,2 L21,2 L21,0 L22,0 L22,2 L23,2 L23,3 L22,3 L22,7 L23,7 L23,8 L2,8 L2,7 L1,7 L1,4 L0,4 Z " transform="translate(136,361)" style="fill: #969696;"/><path d="M0,0 L2,0 L2,1 L3,1 L3,0 L4,0 L4,2 L6,2 L6,3 L7,3 L7,4 L8,4 L8,2 L10,2 L10,3 L12,3 L12,2 L14,2 L14,3 L15,3 L15,4 L16,4 L16,3 L19,3 L19,4 L18,4 L18,9 L17,9 L17,8 L16,8 L16,6 L11,6 L11,7 L12,7 L12,8 L13,8 L13,7 L15,7 L15,8 L14,8 L14,9 L11,9 L11,8 L10,8 L10,9 L8,9 L8,7 L7,7 L7,8 L6,8 L6,9 L5,9 L5,7 L6,7 L6,4 L5,4 L5,3 L4,3 L4,8 L2,8 L2,9 L0,9 L0,5 L-1,5 L-1,7 L-2,7 L-2,8 L-3,8 L-3,7 L-4,7 L-4,5 L-5,5 L-5,8 L-6,8 L-6,1 L-5,1 L-5,2 L-4,2 L-4,4 L-3,4 L-3,6 L-2,6 L-2,4 L-1,4 L-1,1 L0,1 Z " transform="translate(217,122)" style="fill: #5F5F5F;"/><path d="M0,0 L1,0 L1,17 L2,17 L2,18 L3,18 L3,20 L4,20 L4,23 L45,23 L45,19 L46,19 L46,20 L48,20 L48,21 L49,21 L49,22 L51,22 L51,24 L50,24 L50,25 L48,25 L48,26 L46,26 L46,27 L45,27 L45,24 L4,24 L4,28 L3,28 L3,30 L2,30 L2,31 L1,31 L1,29 L2,29 L2,27 L3,27 L3,21 L2,21 L2,19 L1,19 L1,27 L-1,27 L-1,26 L0,26 L0,16 L-2,16 L-2,15 L0,15 Z " transform="translate(312,26)" style="fill: #474747;"/><path d="M0,0 L8,0 L8,2 L10,2 L10,11 L9,11 L9,10 L6,10 L6,9 L5,9 L5,8 L4,8 L4,9 L3,9 L3,10 L1,10 L1,12 L-2,12 L-2,2 L0,2 Z " transform="translate(215,317)" style="fill: #D9D9D9;"/><path d="M0,0 L46,0 L46,1 L45,1 L45,2 L40,2 L40,7 L39,7 L39,2 L29,2 L29,7 L27,7 L27,2 L17,2 L17,7 L16,7 L16,2 L5,2 L5,7 L4,7 L4,2 L3,2 L3,1 L0,1 Z " transform="translate(377,35)" style="fill: #868686;"/><path d="M0,0 L1,0 L1,15 L-1,15 L-1,16 L0,16 L0,25 L-1,25 L-1,24 L-2,24 L-2,23 L-3,23 L-3,22 L-4,22 L-4,21 L-5,21 L-5,20 L-6,20 L-6,21 L-7,21 L-7,22 L-8,22 L-8,23 L-9,23 L-9,24 L-11,24 L-11,16 L-10,16 L-10,15 L-8,15 L-8,13 L-3,13 L-3,14 L0,14 Z " transform="translate(311,26)" style="fill: #E4E4E4;"/><path d="M0,0 L1,0 L1,1 L2,1 L2,2 L3,2 L3,23 L35,23 L35,20 L37,20 L37,21 L38,21 L38,22 L40,22 L40,23 L42,23 L42,21 L43,21 L43,29 L42,29 L42,25 L39,25 L39,26 L38,26 L38,27 L35,27 L35,24 L3,24 L3,30 L2,30 L2,3 L1,3 L1,2 L0,2 Z " transform="translate(253,25)" style="fill: #424242;"/><path d="M0,0 L1,0 L1,2 L6,2 L6,3 L7,3 L7,2 L11,2 L11,4 L12,4 L12,3 L13,3 L13,2 L17,2 L17,8 L0,8 L0,3 L-1,3 L-1,2 L0,2 Z " transform="translate(163,361)" style="fill: #B0B0B0;"/><path d="M0,0 L2,0 L2,1 L4,1 L4,0 L8,0 L8,2 L9,2 L9,1 L10,1 L10,0 L13,0 L13,1 L14,1 L14,5 L13,5 L13,6 L9,6 L9,5 L8,5 L8,7 L7,7 L7,8 L6,8 L6,9 L4,9 L4,8 L2,8 L2,7 L-2,7 L-2,6 L-3,6 L-3,1 L-2,1 L-2,5 L0,5 Z " transform="translate(352,357)" style="fill: #797979;"/><path d="M0,0 L4,0 L4,1 L5,1 L5,2 L6,2 L6,7 L5,7 L5,8 L4,8 L4,9 L1,9 L1,8 L-1,8 L-1,6 L-2,6 L-2,3 L-3,3 L-3,7 L-4,7 L-4,8 L-6,8 L-6,5 L-7,5 L-7,4 L-8,4 L-8,7 L-9,7 L-9,9 L-10,9 L-10,8 L-11,8 L-11,4 L-12,4 L-12,1 L-11,1 L-11,2 L-10,2 L-10,6 L-9,6 L-9,2 L-8,2 L-8,1 L-6,1 L-6,3 L-5,3 L-5,4 L-4,4 L-4,1 L-2,1 L-2,2 L-1,2 L-1,1 L0,1 Z " transform="translate(447,233)" style="fill: #555555;"/><path d="M0,0 L1,0 L1,2 L2,2 L2,3 L3,3 L3,5 L4,5 L4,7 L1,7 L1,36 L9,36 L9,32 L10,32 L10,63 L9,63 L9,37 L0,37 L0,7 L-3,7 L-3,5 L-2,5 L-2,3 L-1,3 L-1,1 L0,1 Z " transform="translate(424,215)" style="fill: #2E2E2E;"/><path d="M0,0 L1,0 L1,1 L3,1 L3,2 L5,2 L5,3 L6,3 L6,4 L5,4 L5,5 L4,5 L4,6 L2,6 L2,7 L0,7 L0,4 L-4,4 L-4,71 L-5,71 L-5,3 L0,3 Z " transform="translate(204,157)" style="fill: #4C4C4C;"/><path d="M0,0 L8,0 L8,1 L9,1 L9,2 L10,2 L10,11 L7,11 L7,9 L5,9 L5,6 L2,6 L2,7 L1,7 L1,8 L0,8 L0,9 L-1,9 L-1,10 L-2,10 L-2,1 L0,1 Z " transform="translate(285,151)" style="fill: #F0F0F0;"/><path d="M0,0 L1,0 L1,9 L0,9 L0,7 L-1,7 L-1,5 L-36,5 L-36,26 L-33,26 L-33,27 L-34,27 L-34,29 L-35,29 L-35,30 L-36,30 L-36,32 L-38,32 L-38,30 L-39,30 L-39,28 L-40,28 L-40,26 L-37,26 L-37,4 L-1,4 L-1,2 L0,2 Z " transform="translate(209,323)" style="fill: #474747;"/><path d="M0,0 L2,0 L2,2 L4,2 L4,5 L5,5 L5,4 L6,4 L6,2 L12,2 L12,3 L14,3 L14,2 L18,2 L18,3 L19,3 L19,6 L18,6 L18,8 L14,8 L14,6 L13,6 L13,7 L12,7 L12,8 L9,8 L9,7 L8,7 L8,6 L6,6 L6,8 L5,8 L5,10 L3,10 L3,9 L4,9 L4,6 L3,6 L3,4 L2,4 L2,8 L0,8 Z " transform="translate(91,257)" style="fill: #555555;"/><path d="M0,0 L2,0 L2,15 L3,15 L3,14 L12,14 L12,15 L4,15 L4,16 L2,16 L2,25 L3,25 L3,24 L4,24 L4,23 L5,23 L5,22 L6,22 L6,21 L9,21 L9,22 L7,22 L7,23 L6,23 L6,24 L5,24 L5,25 L4,25 L4,26 L3,26 L3,27 L2,27 L2,28 L0,28 L0,20 L-1,20 L-1,22 L-2,22 L-2,27 L-1,27 L-1,29 L0,29 L0,31 L-1,31 L-1,30 L-2,30 L-2,28 L-3,28 L-3,21 L-2,21 L-2,19 L-1,19 L-1,17 L0,17 Z " transform="translate(281,136)" style="fill: #757575;"/><path d="M0,0 L1,0 L1,11 L4,11 L4,13 L3,13 L3,14 L2,14 L2,16 L1,16 L1,18 L2,18 L2,19 L7,19 L7,20 L9,20 L9,21 L11,21 L11,22 L12,22 L12,23 L13,23 L13,24 L11,24 L11,23 L10,23 L10,22 L8,22 L8,21 L6,21 L6,20 L-4,20 L-4,21 L-6,21 L-6,22 L-8,22 L-8,23 L-9,23 L-9,24 L-10,24 L-10,25 L-11,25 L-11,26 L-12,26 L-12,24 L-11,24 L-11,23 L-10,23 L-10,22 L-9,22 L-9,21 L-7,21 L-7,20 L-5,20 L-5,19 L-1,19 L-1,16 L-2,16 L-2,14 L-3,14 L-3,13 L-4,13 L-4,11 L-1,11 L-1,1 L0,1 Z " transform="translate(88,0)" style="fill: #797979;"/><path d="M0,0 L1,0 L1,1 L3,1 L3,2 L4,2 L4,3 L6,3 L6,5 L4,5 L4,6 L3,6 L3,7 L1,7 L1,8 L0,8 L0,5 L-32,5 L-32,3 L0,3 Z " transform="translate(271,156)" style="fill: #9A9A9A;"/><path d="M0,0 L1,0 L1,2 L10,2 L10,3 L12,3 L12,2 L16,2 L16,3 L13,3 L13,4 L17,4 L17,5 L13,5 L13,7 L15,7 L15,6 L17,6 L17,7 L16,7 L16,8 L0,8 L0,3 L-1,3 L-1,2 L0,2 Z " transform="translate(182,361)" style="fill: #656565;"/><path d="M0,0 L3,0 L3,1 L6,1 L6,2 L8,2 L8,11 L7,11 L7,10 L6,10 L6,9 L5,9 L5,8 L4,8 L4,7 L3,7 L3,6 L1,6 L1,7 L0,7 L0,8 L-1,8 L-1,9 L-2,9 L-2,10 L-3,10 L-3,11 L-4,11 L-4,2 L-3,2 L-3,1 L0,1 Z " transform="translate(95,285)" style="fill: #FCFCFC;"/><path d="M0,0 L2,0 L2,1 L3,1 L3,2 L5,2 L5,1 L6,1 L6,0 L9,0 L9,1 L11,1 L11,0 L14,0 L14,3 L13,3 L13,4 L11,4 L11,3 L10,3 L10,4 L9,4 L9,5 L7,5 L7,6 L6,6 L6,7 L10,7 L10,8 L4,8 L4,7 L3,7 L3,8 L-1,8 L-1,7 L-2,7 L-2,2 L-1,2 L-1,1 L0,1 Z " transform="translate(489,54)" style="fill: #747474;"/><path d="M0,0 L2,0 L2,1 L3,1 L3,2 L5,2 L5,1 L6,1 L6,0 L8,0 L8,1 L11,1 L11,0 L13,0 L13,1 L14,1 L14,3 L13,3 L13,4 L11,4 L11,3 L10,3 L10,4 L9,4 L9,5 L7,5 L7,6 L6,6 L6,7 L10,7 L10,8 L4,8 L4,7 L3,7 L3,8 L-1,8 L-1,7 L-2,7 L-2,2 L-1,2 L-1,1 L0,1 Z " transform="translate(398,239)" style="fill: #878787;"/><path d="M0,0 L37,0 L37,9 L40,9 L40,11 L39,11 L39,13 L38,13 L38,15 L37,15 L37,16 L42,16 L42,17 L44,17 L44,18 L40,18 L40,17 L33,17 L33,16 L36,16 L36,14 L35,14 L35,12 L34,12 L34,11 L33,11 L33,9 L36,9 L36,1 L0,1 Z " transform="translate(52,76)" style="fill: #3E3E3E;"/><path d="M0,0 L9,0 L9,1 L11,1 L11,6 L10,6 L10,9 L8,9 L8,8 L7,8 L7,7 L6,7 L6,6 L5,6 L5,5 L4,5 L4,6 L3,6 L3,7 L2,7 L2,8 L1,8 L1,9 L-1,9 L-1,1 L0,1 Z " transform="translate(452,41)" style="fill: #F9F9F9;"/><path d="M0,0 L1,0 L1,3 L0,3 L0,5 L-1,5 L-1,8 L-2,8 L-2,10 L-3,10 L-3,12 L23,12 L23,11 L22,11 L22,8 L23,8 L23,10 L24,10 L24,12 L25,12 L25,14 L10,14 L10,17 L9,17 L9,14 L-5,14 L-5,12 L-4,12 L-4,9 L-3,9 L-3,7 L-2,7 L-2,4 L-1,4 L-1,2 L0,2 Z " transform="translate(332,328)" style="fill: #727272;"/><path d="M0,0 L3,0 L3,1 L5,1 L5,2 L10,2 L10,3 L11,3 L11,8 L9,8 L9,9 L8,9 L8,8 L6,8 L6,7 L4,7 L4,8 L-1,8 L-1,7 L-2,7 L-2,2 L-1,2 L-1,1 L0,1 Z " transform="translate(20,35)" style="fill: #A6A6A6;"/><path d="M0,0 L2,0 L2,1 L1,1 L1,2 L0,2 L0,3 L-1,3 L-1,31 L-2,31 L-2,26 L-3,26 L-3,27 L-5,27 L-5,28 L-7,28 L-7,29 L-8,29 L-8,26 L-33,26 L-33,25 L-8,25 L-8,22 L-7,22 L-7,23 L-5,23 L-5,24 L-3,24 L-3,25 L-2,25 L-2,2 L-1,2 L-1,1 L0,1 Z " transform="translate(77,96)" style="fill: #282828;"/><path d="M0,0 L3,0 L3,1 L1,1 L1,2 L-4,2 L-4,3 L-3,3 L-3,5 L-2,5 L-2,7 L-1,7 L-1,9 L-4,9 L-4,47 L-5,47 L-5,9 L-8,9 L-8,7 L-7,7 L-7,5 L-6,5 L-6,3 L-5,3 L-5,2 L-9,2 L-9,1 L0,1 Z " transform="translate(246,60)" style="fill: #363636;"/><path d="M0,0 L4,0 L4,1 L6,1 L6,0 L10,0 L10,1 L11,1 L11,3 L10,3 L10,4 L9,4 L9,5 L8,5 L8,6 L11,6 L11,8 L5,8 L5,6 L4,6 L4,7 L3,7 L3,8 L1,8 L1,7 L0,7 L0,6 L-1,6 L-1,1 L0,1 Z " transform="translate(462,311)" style="fill: #7B7B7B;"/><path d="M0,0 L2,0 L2,4 L46,4 L46,5 L2,5 L2,8 L0,8 L0,7 L-2,7 L-2,6 L-3,6 L-3,5 L-4,5 L-4,3 L-3,3 L-3,2 L-1,2 L-1,1 L0,1 Z " transform="translate(235,324)" style="fill: #757575;"/><path d="M0,0 L1,0 L1,1 L3,1 L3,2 L5,2 L5,3 L6,3 L6,5 L4,5 L4,6 L2,6 L2,7 L0,7 L0,5 L-25,5 L-25,3 L0,3 Z " transform="translate(68,101)" style="fill: #8A8A8A;"/><path d="M0,0 L2,0 L2,7 L6,7 L6,3 L8,3 L8,4 L9,4 L9,3 L10,3 L10,2 L12,2 L12,3 L14,3 L14,11 L12,11 L12,9 L10,9 L10,8 L9,8 L9,7 L8,7 L8,8 L7,8 L7,9 L1,9 L1,8 L0,8 Z " transform="translate(456,297)" style="fill: #8D8D8D;"/><path d="M0,0 L1,0 L1,42 L-4,42 L-4,45 L-6,45 L-6,44 L-8,44 L-8,43 L-9,43 L-9,42 L-11,42 L-11,41 L-9,41 L-9,40 L-7,40 L-7,39 L-5,39 L-5,38 L-4,38 L-4,41 L0,41 Z " transform="translate(476,211)" style="fill: #3E3E3E;"/><path d="M0,0 L4,0 L4,1 L5,1 L5,2 L10,2 L10,3 L11,3 L11,5 L10,5 L10,4 L9,4 L9,3 L8,3 L8,4 L7,4 L7,7 L10,7 L10,8 L6,8 L6,7 L4,7 L4,8 L-1,8 L-1,7 L-2,7 L-2,2 L-1,2 L-1,1 L0,1 Z " transform="translate(318,355)" style="fill: #8F8F8F;"/><path d="M0,0 L3,0 L3,1 L5,1 L5,2 L7,2 L7,4 L5,4 L5,5 L4,5 L4,6 L2,6 L2,7 L1,7 L1,4 L-21,4 L-21,3 L-20,3 L-20,2 L0,2 Z " transform="translate(203,140)" style="fill: #898989;"/><path d="M0,0 L3,0 L3,1 L4,1 L4,2 L5,2 L5,1 L6,1 L6,0 L9,0 L9,1 L10,1 L10,2 L11,2 L11,6 L10,6 L10,7 L9,7 L9,8 L6,8 L6,7 L5,7 L5,6 L4,6 L4,7 L3,7 L3,5 L0,5 L0,4 L-1,4 L-1,1 L0,1 Z " transform="translate(265,332)" style="fill: #858585;"/><path d="M0,0 L4,0 L4,1 L5,1 L5,3 L6,3 L6,0 L8,0 L8,8 L6,8 L6,6 L5,6 L5,7 L4,7 L4,8 L-1,8 L-1,6 L-2,6 L-2,2 L-1,2 L-1,1 L0,1 Z " transform="translate(257,235)" style="fill: #A4A4A4;"/><path d="M0,0 L1,0 L1,2 L2,2 L2,3 L3,3 L3,2 L7,2 L7,7 L8,7 L8,2 L13,2 L13,7 L12,7 L12,3 L10,3 L10,8 L3,8 L3,7 L2,7 L2,8 L0,8 L0,7 L-1,7 L-1,1 L0,1 Z " transform="translate(253,206)" style="fill: #505050;"/><path d="M0,0 L2,0 L2,4 L3,4 L3,3 L4,3 L4,2 L6,2 L6,3 L7,3 L7,4 L4,4 L4,5 L7,5 L7,8 L6,8 L6,9 L4,9 L4,8 L3,8 L3,7 L6,7 L6,6 L3,6 L3,5 L2,5 L2,8 L1,8 L1,9 L-2,9 L-2,8 L-3,8 L-3,9 L-5,9 L-5,8 L-6,8 L-6,3 L-5,3 L-5,2 L-2,2 L-2,3 L-1,3 L-1,8 L0,8 Z " transform="translate(332,24)" style="fill: #747474;"/><path d="M0,0 L3,0 L3,1 L4,1 L4,2 L5,2 L5,4 L4,4 L4,5 L5,5 L5,7 L4,7 L4,8 L3,8 L3,9 L-1,9 L-1,8 L-2,8 L-2,6 L-3,6 L-3,4 L-7,4 L-7,1 L-4,1 L-4,2 L-3,2 L-3,3 L-2,3 L-2,2 L-1,2 L-1,1 L0,1 Z " transform="translate(56,55)" style="fill: #CBCBCB;"/><path d="M0,0 L3,0 L3,1 L4,1 L4,4 L5,4 L5,6 L6,6 L6,5 L7,5 L7,4 L9,4 L9,2 L6,2 L6,3 L5,3 L5,1 L6,1 L6,0 L9,0 L9,1 L10,1 L10,5 L8,5 L8,6 L7,6 L7,7 L10,7 L10,8 L0,8 L0,7 L-1,7 L-1,1 L0,1 Z " transform="translate(182,36)" style="fill: #747474;"/><path d="M0,0 L5,0 L5,1 L6,1 L6,2 L11,2 L11,3 L9,3 L9,8 L7,8 L7,5 L6,5 L6,7 L5,7 L5,8 L0,8 Z " transform="translate(373,90)" style="fill: #1F1F1F;"/><path d="M0,0 L7,0 L7,1 L6,1 L6,3 L5,3 L5,5 L4,5 L4,20 L6,20 L6,21 L4,21 L4,31 L5,31 L5,32 L4,32 L4,33 L3,33 L3,25 L1,25 L1,23 L2,23 L2,22 L3,22 L3,5 L2,5 L2,4 L1,4 L1,2 L0,2 Z " transform="translate(209,298)" style="fill: #303030;"/><path d="M0,0 L1,0 L1,9 L0,9 L0,8 L-1,8 L-1,7 L-3,7 L-3,6 L-5,6 L-5,9 L-30,9 L-30,8 L-6,8 L-6,5 L-5,5 L-5,4 L-4,4 L-4,2 L-2,2 L-2,1 L0,1 Z " transform="translate(74,39)" style="fill: #E4E4E4;"/><path d="M0,0 L4,0 L4,1 L6,1 L6,9 L5,9 L5,8 L-1,8 L-1,6 L-2,6 L-2,2 L-1,2 L-1,1 L0,1 Z " transform="translate(443,34)" style="fill: #A9A9A9;"/><path d="M0,0 L3,0 L3,1 L4,1 L4,5 L5,5 L5,0 L13,0 L13,6 L12,6 L12,1 L10,1 L10,6 L9,6 L9,1 L7,1 L7,6 L-1,6 L-1,3 L0,3 L0,2 L-1,2 L-1,1 L0,1 Z " transform="translate(152,15)" style="fill: #444444;"/><path d="M0,0 L1,0 L1,2 L4,2 L4,3 L5,3 L5,8 L3,8 L3,3 L1,3 L1,8 L-5,8 L-5,7 L-6,7 L-6,3 L-5,3 L-5,2 L0,2 Z " transform="translate(396,90)" style="fill: #7C7C7C;"/><path d="M0,0 L3,0 L3,1 L4,1 L4,4 L5,4 L5,3 L6,3 L6,2 L5,2 L5,1 L6,1 L6,0 L9,0 L9,1 L10,1 L10,6 L5,6 L5,5 L3,5 L3,6 L-1,6 L-1,1 L0,1 Z " transform="translate(303,15)" style="fill: #5F5F5F;"/><path d="M0,0 L3,0 L3,3 L4,3 L4,2 L8,2 L8,7 L9,7 L9,8 L1,8 L1,4 L0,4 L0,6 L-1,6 L-1,3 L0,3 Z " transform="translate(27,23)" style="fill: #6D6D6D;"/><path d="M0,0 L3,0 L3,1 L4,1 L4,2 L5,2 L5,1 L6,1 L6,0 L8,0 L8,1 L9,1 L9,3 L8,3 L8,4 L6,4 L6,3 L5,3 L5,6 L4,6 L4,8 L0,8 L0,7 L-1,7 L-1,2 L0,2 Z " transform="translate(181,332)" style="fill: #8A8A8A;"/><path d="M0,0 L2,0 L2,6 L3,6 L3,3 L4,3 L4,4 L7,4 L7,2 L8,2 L8,4 L9,4 L9,2 L10,2 L10,1 L12,1 L12,3 L11,3 L11,7 L9,7 L9,5 L8,5 L8,7 L7,7 L7,8 L4,8 L4,7 L3,7 L3,8 L1,8 L1,7 L0,7 Z " transform="translate(176,261)" style="fill: #828282;"/><path d="M0,0 L5,0 L5,1 L6,1 L6,8 L5,8 L5,7 L4,7 L4,8 L0,8 L0,7 L-1,7 L-1,1 L0,1 Z " transform="translate(84,257)" style="fill: #8C8C8C;"/><path d="M0,0 L5,0 L5,1 L6,1 L6,8 L5,8 L5,7 L4,7 L4,8 L0,8 L0,7 L-1,7 L-1,1 L0,1 Z " transform="translate(397,226)" style="fill: #4D4D4D;"/><path d="M0,0 L5,0 L5,1 L6,1 L6,3 L5,3 L5,4 L6,4 L6,7 L5,7 L5,8 L0,8 L0,7 L-1,7 L-1,1 L0,1 Z " transform="translate(291,332)" style="fill: #9B9B9B;"/><path d="M0,0 L2,0 L2,1 L3,1 L3,2 L5,2 L5,3 L6,3 L6,5 L5,5 L5,6 L3,6 L3,7 L1,7 L1,4 L-24,4 L-24,3 L0,3 Z " transform="translate(68,24)" style="fill: #3A3A3A;"/><path d="M0,0 L5,0 L5,1 L6,1 L6,3 L5,3 L5,4 L6,4 L6,6 L5,6 L5,8 L0,8 L0,7 L-1,7 L-1,1 L0,1 Z " transform="translate(192,332)" style="fill: #9D9D9D;"/><path d="M0,0 L4,0 L4,1 L6,1 L6,3 L5,3 L5,7 L4,7 L4,8 L0,8 L0,7 L-1,7 L-1,6 L-2,6 L-2,2 L-1,2 L-1,1 L0,1 Z " transform="translate(329,166)" style="fill: #9F9F9F;"/><path d="M0,0 L4,0 L4,1 L5,1 L5,7 L4,7 L4,8 L-1,8 L-1,7 L-2,7 L-2,2 L-1,2 L-1,1 L0,1 Z " transform="translate(506,54)" style="fill: #9D9D9D;"/><path d="M0,0 L5,0 L5,1 L6,1 L6,2 L7,2 L7,1 L8,1 L8,2 L9,2 L9,3 L8,3 L8,7 L9,7 L9,8 L7,8 L7,4 L6,4 L6,7 L5,7 L5,8 L0,8 L0,7 L-1,7 L-1,6 L1,6 L1,7 L4,7 L4,5 L1,5 L1,4 L0,4 Z " transform="translate(440,13)" style="fill: #404040;"/><path d="M0,0 L5,0 L5,1 L6,1 L6,3 L5,3 L5,4 L6,4 L6,6 L5,6 L5,7 L4,7 L4,8 L0,8 L0,7 L-1,7 L-1,1 L0,1 Z " transform="translate(196,131)" style="fill: #9E9E9E;"/><path d="M0,0 L5,0 L5,1 L6,1 L6,3 L5,3 L5,4 L6,4 L6,6 L5,6 L5,7 L4,7 L4,8 L0,8 L0,7 L-1,7 L-1,1 L0,1 Z " transform="translate(128,95)" style="fill: #A0A0A0;"/><path d="M0,0 L2,0 L2,1 L4,1 L4,2 L5,2 L5,4 L4,4 L4,5 L3,5 L3,6 L1,6 L1,7 L0,7 L0,4 L-25,4 L-25,3 L0,3 Z " transform="translate(69,45)" style="fill: #353535;"/><path d="M0,0 L4,0 L4,1 L5,1 L5,7 L4,7 L4,8 L0,8 L0,7 L-1,7 L-1,6 L-2,6 L-2,2 L-1,2 L-1,1 L0,1 Z " transform="translate(71,279)" style="fill: #9D9D9D;"/><path d="M0,0 L3,0 L3,1 L4,1 L4,4 L5,4 L5,3 L6,3 L6,5 L8,5 L8,1 L6,1 L6,0 L9,0 L9,1 L10,1 L10,6 L5,6 L5,5 L3,5 L3,6 L-1,6 L-1,1 L0,1 Z " transform="translate(451,15)" style="fill: #5F5F5F;"/><path d="M0,0 L1,0 L1,2 L2,2 L2,3 L1,3 L1,7 L2,7 L2,8 L-6,8 L-6,2 L-2,2 L-2,3 L-1,3 L-1,2 L0,2 Z " transform="translate(206,361)" style="fill: #838383;"/><path d="M0,0 L3,0 L3,1 L5,1 L5,0 L8,0 L8,3 L7,3 L7,1 L6,1 L6,3 L5,3 L5,2 L4,2 L4,3 L3,3 L3,5 L4,5 L4,7 L3,7 L3,8 L-1,8 L-1,7 L-2,7 L-2,5 L-1,5 L-1,1 L0,1 Z " transform="translate(281,332)" style="fill: #646464;"/><path d="M0,0 L4,0 L4,1 L5,1 L5,0 L9,0 L9,1 L7,1 L7,6 L5,6 L5,5 L4,5 L4,6 L0,6 L0,4 L-1,4 L-1,1 L0,1 Z " transform="translate(240,208)" style="fill: #9D9D9D;"/><path d="M0,0 L11,0 L11,1 L8,1 L8,2 L10,2 L10,3 L11,3 L11,7 L10,7 L10,8 L7,8 L7,7 L6,7 L6,6 L8,6 L8,7 L9,7 L9,6 L10,6 L10,4 L6,4 L6,3 L5,3 L5,4 L3,4 L3,7 L2,7 L2,8 L1,8 L1,5 L2,5 L2,3 L3,3 L3,2 L4,2 L4,1 L0,1 Z " transform="translate(325,38)" style="fill: #484848;"/><path d="M0,0 L3,0 L3,1 L4,1 L4,3 L3,3 L3,4 L4,4 L4,6 L6,6 L6,7 L9,7 L9,8 L5,8 L5,7 L3,7 L3,8 L-1,8 L-1,6 L-2,6 L-2,3 L-1,3 L-1,1 L0,1 Z " transform="translate(263,36)" style="fill: #757575;"/><path d="M0,0 L2,0 L2,3 L3,3 L3,4 L4,4 L4,0 L6,0 L6,1 L7,1 L7,4 L8,4 L8,2 L9,2 L9,0 L10,0 L10,5 L9,5 L9,8 L7,8 L7,6 L6,6 L6,3 L5,3 L5,6 L4,6 L4,8 L2,8 L2,5 L1,5 L1,1 L0,1 Z " transform="translate(146,131)" style="fill: #4E4E4E;"/><path d="M0,0 L19,0 L19,1 L17,1 L17,7 L16,7 L16,2 L5,2 L5,7 L4,7 L4,2 L3,2 L3,1 L0,1 Z " transform="translate(377,35)" style="fill: #6E6E6E;"/><path d="M0,0 L1,0 L1,1 L2,1 L2,4 L1,4 L1,6 L-3,6 L-3,4 L-4,4 L-4,5 L-5,5 L-5,6 L-8,6 L-8,1 L-6,1 L-6,2 L-2,2 L-2,1 L0,1 Z " transform="translate(108,259)" style="fill: #8E8E8E;"/><path d="M0,0 L5,0 L5,1 L6,1 L6,2 L7,2 L7,1 L8,1 L8,2 L9,2 L9,3 L8,3 L8,7 L9,7 L9,8 L7,8 L7,3 L6,3 L6,7 L5,7 L5,8 L1,8 L1,7 L4,7 L4,6 L5,6 L5,5 L3,5 L3,4 L1,4 L1,3 L0,3 Z " transform="translate(274,123)" style="fill: #636363;"/><path d="M0,0 L7,0 L7,2 L6,2 L6,4 L5,4 L5,6 L4,6 L4,7 L9,7 L9,8 L11,8 L11,9 L7,9 L7,8 L0,8 L0,7 L3,7 L3,5 L2,5 L2,3 L1,3 L1,2 L0,2 Z " transform="translate(85,85)" style="fill: #2A2A2A;"/><path d="M0,0 L3,0 L3,1 L12,1 L12,0 L15,0 L15,1 L13,1 L13,2 L8,2 L8,4 L9,4 L9,6 L10,6 L10,8 L4,8 L4,6 L5,6 L5,4 L6,4 L6,2 L2,2 L2,1 L0,1 Z " transform="translate(219,256)" style="fill: #292929;"/><path d="M0,0 L2,0 L2,2 L3,2 L3,4 L5,4 L5,1 L6,1 L6,0 L8,0 L8,8 L6,8 L6,5 L5,5 L5,7 L3,7 L3,6 L2,6 L2,3 L1,3 L1,8 L0,8 Z " transform="translate(19,101)" style="fill: #4A4A4A;"/><path d="M0,0 L2,0 L2,3 L4,3 L4,0 L6,0 L6,1 L7,1 L7,5 L8,5 L8,1 L9,1 L9,0 L10,0 L10,4 L9,4 L9,7 L8,7 L8,8 L7,8 L7,6 L6,6 L6,3 L5,3 L5,5 L4,5 L4,7 L2,7 L2,5 L1,5 L1,2 L0,2 Z " transform="translate(5,56)" style="fill: #4B4B4B;"/><path d="M0,0 L6,0 L6,2 L7,2 L7,1 L8,1 L8,0 L11,0 L11,2 L10,2 L10,1 L9,1 L9,2 L8,2 L8,3 L11,3 L11,5 L8,5 L8,7 L11,7 L11,8 L7,8 L7,3 L6,3 L6,4 L5,4 L5,5 L3,5 L3,3 L4,3 L4,2 L0,2 Z " transform="translate(424,34)" style="fill: #3E3E3E;"/><path d="M0,0 L2,0 L2,5 L3,5 L3,2 L4,2 L4,0 L6,0 L6,2 L7,2 L7,5 L8,5 L8,0 L10,0 L10,2 L9,2 L9,6 L8,6 L8,8 L7,8 L7,7 L6,7 L6,4 L4,4 L4,7 L3,7 L3,8 L2,8 L2,6 L1,6 L1,2 L0,2 Z " transform="translate(21,279)" style="fill: #464646;"/><path d="M0,0 L2,0 L2,1 L3,1 L3,4 L5,4 L5,2 L6,2 L6,0 L8,0 L8,8 L7,8 L7,3 L6,3 L6,5 L5,5 L5,7 L3,7 L3,5 L2,5 L2,8 L0,8 Z " transform="translate(78,36)" style="fill: #484848;"/><path d="M0,0 L2,0 L2,1 L3,1 L3,4 L5,4 L5,2 L6,2 L6,0 L8,0 L8,7 L7,7 L7,3 L6,3 L6,6 L5,6 L5,7 L3,7 L3,5 L2,5 L2,8 L0,8 Z " transform="translate(213,8)" style="fill: #494949;"/><path d="M0,0 L1,0 L1,2 L2,2 L2,4 L3,4 L3,5 L4,5 L4,7 L1,7 L1,17 L0,17 L0,7 L-3,7 L-3,5 L-2,5 L-2,3 L-1,3 L-1,1 L0,1 Z " transform="translate(341,292)" style="fill: #1D1D1D;"/><path d="M0,0 L3,0 L3,1 L5,1 L5,0 L8,0 L8,1 L6,1 L6,6 L5,6 L5,5 L3,5 L3,6 L-1,6 L-1,5 L-2,5 L-2,2 L2,2 L2,1 L0,1 Z " transform="translate(42,281)" style="fill: #6C6C6C;"/><path d="M0,0 L1,0 L1,2 L2,2 L2,6 L3,6 L3,2 L4,2 L4,1 L6,1 L6,4 L8,4 L8,0 L10,0 L10,2 L9,2 L9,6 L8,6 L8,8 L6,8 L6,5 L5,5 L5,3 L4,3 L4,7 L3,7 L3,8 L1,8 L1,4 L0,4 Z " transform="translate(160,260)" style="fill: #404040;"/><path d="M0,0 L4,0 L4,2 L5,2 L5,1 L6,1 L6,0 L10,0 L10,6 L6,6 L6,5 L5,5 L5,3 L1,3 L1,2 L3,2 L3,1 L0,1 Z " transform="translate(170,363)" style="fill: #636363;"/><path d="M0,0 L3,0 L3,1 L1,1 L1,2 L-4,2 L-4,3 L-3,3 L-3,5 L-2,5 L-2,7 L-1,7 L-1,8 L-8,8 L-8,7 L-7,7 L-7,5 L-6,5 L-6,3 L-5,3 L-5,2 L-9,2 L-9,1 L0,1 Z " transform="translate(246,60)" style="fill: #1E1E1E;"/><path d="M0,0 L3,0 L3,1 L4,1 L4,7 L3,7 L3,8 L-1,8 L-1,1 L0,1 Z " transform="translate(114,36)" style="fill: #717171;"/><path d="M0,0 L3,0 L3,1 L4,1 L4,7 L3,7 L3,8 L0,8 L0,7 L-1,7 L-1,1 L0,1 Z " transform="translate(318,166)" style="fill: #7F7F7F;"/><path d="M0,0 L3,0 L3,1 L4,1 L4,3 L3,3 L3,4 L4,4 L4,7 L3,7 L3,8 L-1,8 L-1,1 L0,1 Z " transform="translate(312,166)" style="fill: #6C6C6C;"/><path d="M0,0 L3,0 L3,1 L5,1 L5,0 L8,0 L8,3 L7,3 L7,4 L5,4 L5,3 L4,3 L4,4 L3,4 L3,5 L-1,5 L-1,6 L-2,6 L-2,3 L0,3 Z " transform="translate(495,54)" style="fill: #A3A3A3;"/><path d="M0,0 L1,0 L1,2 L3,2 L3,4 L4,4 L4,3 L6,3 L6,8 L0,8 L0,3 L-1,3 L-1,2 L0,2 Z " transform="translate(182,361)" style="fill: #9E9E9E;"/><path d="M0,0 L1,0 L1,2 L2,2 L2,4 L3,4 L3,6 L-12,6 L-12,4 L1,4 L1,3 L0,3 Z " transform="translate(354,336)" style="fill: #7F7F7F;"/><path d="M0,0 L3,0 L3,1 L4,1 L4,2 L6,2 L6,3 L7,3 L7,1 L8,1 L8,6 L7,6 L7,4 L5,4 L5,5 L3,5 L3,6 L2,6 L2,7 L0,7 Z " transform="translate(79,292)" style="fill: #222222;"/><path d="M0,0 L3,0 L3,1 L4,1 L4,7 L3,7 L3,8 L0,8 L0,7 L-1,7 L-1,4 L0,4 L0,3 L-1,3 L-1,1 L0,1 Z " transform="translate(117,95)" style="fill: #696969;"/><path d="M0,0 L2,0 L2,2 L3,2 L3,5 L5,5 L5,2 L6,2 L6,1 L8,1 L8,8 L7,8 L7,4 L6,4 L6,6 L5,6 L5,8 L3,8 L3,6 L2,6 L2,3 L1,3 L1,8 L0,8 Z " transform="translate(317,24)" style="fill: #3A3A3A;"/><path d="M0,0 L2,0 L2,1 L3,1 L3,0 L5,0 L5,1 L4,1 L4,2 L5,2 L5,3 L4,3 L4,8 L0,8 Z " transform="translate(343,355)" style="fill: #7C7C7C;"/><path d="M0,0 L3,0 L3,1 L4,1 L4,5 L5,5 L5,4 L6,4 L6,5 L9,5 L9,6 L-1,6 L-1,3 L0,3 L0,2 L-1,2 L-1,1 L0,1 Z " transform="translate(405,228)" style="fill: #616161;"/><path d="M0,0 L1,0 L1,2 L2,2 L2,3 L6,3 L6,4 L4,4 L4,5 L6,5 L6,6 L5,6 L5,7 L2,7 L2,8 L0,8 L0,7 L-1,7 L-1,1 L0,1 Z " transform="translate(253,206)" style="fill: #959595;"/><path d="M0,0 L4,0 L4,1 L5,1 L5,2 L3,2 L3,1 L1,1 L1,3 L4,3 L4,4 L5,4 L5,7 L4,7 L4,8 L0,8 L0,7 L-1,7 L-1,5 L2,5 L2,4 L0,4 L0,3 L-1,3 L-1,1 L0,1 Z " transform="translate(136,13)" style="fill: #646464;"/><path d="M0,0 L5,0 L5,1 L6,1 L6,4 L5,4 L5,5 L1,5 L1,8 L0,8 Z " transform="translate(267,235)" style="fill: #6A6A6A;"/><path d="M0,0 L4,0 L4,1 L5,1 L5,4 L4,4 L4,6 L0,6 L0,5 L-1,5 L-1,1 L0,1 Z " transform="translate(211,208)" style="fill: #818181;"/><path d="M0,0 L3,0 L3,1 L4,1 L4,2 L5,2 L5,3 L3,3 L3,2 L0,2 L0,3 L-1,3 L-1,7 L-2,7 L-2,6 L-3,6 L-3,4 L-7,4 L-7,1 L-3,1 L-3,3 L-2,3 L-2,2 L-1,2 L-1,1 L0,1 Z " transform="translate(30,130)" style="fill: #707070;"/><path d="M0,0 L2,0 L2,1 L4,1 L4,2 L6,2 L6,0 L7,0 L7,8 L6,8 L6,4 L3,4 L3,5 L2,5 L2,6 L0,6 Z " transform="translate(289,46)" style="fill: #1D1D1D;"/><path d="M0,0 L1,0 L1,1 L3,1 L3,7 L2,7 L2,6 L1,6 L1,7 L-2,7 L-2,1 L0,1 Z " transform="translate(30,102)" style="fill: #727272;"/><path d="M0,0 L3,0 L3,1 L4,1 L4,2 L5,2 L5,3 L3,3 L3,2 L0,2 L0,3 L-1,3 L-1,7 L-2,7 L-2,6 L-3,6 L-3,4 L-6,4 L-6,3 L-7,3 L-7,1 L-3,1 L-3,3 L-2,3 L-2,2 L-1,2 L-1,1 L0,1 Z " transform="translate(344,37)" style="fill: #6F6F6F;"/><path d="M0,0 L12,0 L12,1 L11,1 L11,2 L6,2 L6,7 L5,7 L5,2 L-2,2 L-2,1 L0,1 Z " transform="translate(411,35)" style="fill: #757575;"/><path d="M0,0 L1,0 L1,2 L6,2 L6,3 L4,3 L4,8 L0,8 L0,3 L-1,3 L-1,2 L0,2 Z " transform="translate(163,361)" style="fill: #707070;"/><path d="M0,0 L2,0 L2,1 L6,1 L6,3 L5,3 L5,7 L3,7 L3,2 L2,2 L2,7 L0,7 Z " transform="translate(336,356)" style="fill: #686868;"/><path d="M0,0 L1,0 L1,7 L-1,7 L-1,8 L-2,8 L-2,7 L-3,7 L-3,6 L-4,6 L-4,3 L-3,3 L-3,1 L0,1 Z " transform="translate(483,298)" style="fill: #787878;"/><path d="M0,0 L2,0 L2,1 L3,1 L3,2 L5,2 L5,1 L6,1 L6,3 L7,3 L7,1 L8,1 L8,4 L5,4 L5,3 L4,3 L4,4 L3,4 L3,6 L2,6 L2,7 L0,7 Z " transform="translate(199,260)" style="fill: #A5A5A5;"/><path d="M0,0 L5,0 L5,6 L0,6 L0,3 L1,3 L1,2 L0,2 Z " transform="translate(290,125)" style="fill: #6A6A6A;"/><path d="M0,0 L1,0 L1,1 L3,1 L3,2 L4,2 L4,3 L6,3 L6,5 L5,5 L5,6 L3,6 L3,7 L1,7 L1,8 L0,8 Z " transform="translate(357,45)" style="fill: #181818;"/><path d="M0,0 L2,0 L2,1 L4,1 L4,2 L5,2 L5,3 L7,3 L7,4 L5,4 L5,5 L4,5 L4,6 L2,6 L2,7 L0,7 Z " transform="translate(221,45)" style="fill: #1F1F1F;"/><path d="M0,0 L2,0 L2,4 L3,4 L3,7 L4,7 L4,9 L3,9 L3,8 L2,8 L2,6 L-1,6 L-1,8 L-2,8 L-2,9 L-3,9 L-3,7 L-2,7 L-2,4 L-1,4 L-1,1 L0,1 Z " transform="translate(90,35)" style="fill: #5A5A5A;"/><path d="M0,0 L3,0 L3,1 L4,1 L4,6 L2,6 L2,7 L1,7 L1,6 L-1,6 L-1,1 L0,1 Z " transform="translate(27,37)" style="fill: #828282;"/><path d="M0,0 L7,0 L7,6 L3,6 L3,1 L1,1 L1,2 L0,2 Z " transform="translate(185,363)" style="fill: #777777;"/><path d="M0,0 L2,0 L2,7 L0,7 L0,6 L-1,6 L-1,5 L-3,5 L-3,4 L-4,4 L-4,2 L-2,2 L-2,1 L0,1 Z " transform="translate(366,325)" style="fill: #161616;"/><path d="M0,0 L2,0 L2,1 L4,1 L4,9 L2,9 L2,7 L0,7 L0,6 L-1,6 L-1,4 L0,4 L0,5 L2,5 L2,2 L0,2 L0,3 L-1,3 L-1,1 L0,1 Z " transform="translate(466,299)" style="fill: #656565;"/><path d="M0,0 L1,0 L1,1 L3,1 L3,2 L4,2 L4,3 L6,3 L6,5 L4,5 L4,6 L3,6 L3,7 L1,7 L1,8 L0,8 Z " transform="translate(271,156)" style="fill: #121212;"/><path d="M0,0 L2,0 L2,1 L3,1 L3,0 L4,0 L4,2 L6,2 L6,3 L4,3 L4,8 L2,8 L2,9 L0,9 L0,8 L1,8 L1,1 L0,1 Z " transform="translate(217,122)" style="fill: #A3A3A3;"/><path d="M0,0 L3,0 L3,1 L4,1 L4,2 L5,2 L5,1 L6,1 L6,6 L7,6 L7,7 L9,7 L9,6 L10,6 L10,5 L11,5 L11,7 L10,7 L10,8 L6,8 L6,7 L5,7 L5,5 L4,5 L4,3 L0,3 Z " transform="translate(49,56)" style="fill: #636363;"/><path d="M0,0 L8,0 L8,1 L9,1 L9,6 L8,6 L8,2 L7,2 L7,1 L6,1 L6,2 L5,2 L5,6 L4,6 L4,2 L1,2 L1,6 L0,6 Z " transform="translate(32,37)" style="fill: #525252;"/><path d="M0,0 L3,0 L3,1 L4,1 L4,5 L3,5 L3,6 L-1,6 L-1,1 L0,1 Z " transform="translate(362,357)" style="fill: #727272;"/><path d="M0,0 L1,0 L1,8 L3,8 L3,9 L1,9 L1,11 L2,11 L2,12 L3,12 L3,13 L4,13 L4,14 L2,14 L2,13 L1,13 L1,12 L0,12 L0,10 L-1,10 L-1,2 L0,2 Z " transform="translate(88,290)" style="fill: #B9B9B9;"/><path d="M0,0 L1,0 L1,7 L-1,7 L-1,6 L-3,6 L-3,5 L-4,5 L-4,4 L-6,4 L-6,3 L-4,3 L-4,2 L-2,2 L-2,1 L0,1 Z " transform="translate(471,249)" style="fill: #0B0B0B;"/><path d="M0,0 L3,0 L3,1 L4,1 L4,6 L0,6 L0,5 L-1,5 L-1,1 L0,1 Z " transform="translate(167,133)" style="fill: #676767;"/><path d="M0,0 L2,0 L2,1 L3,1 L3,4 L4,4 L4,7 L3,7 L3,6 L-1,6 L-1,8 L-2,8 L-2,5 L-1,5 L-1,2 L0,2 Z " transform="translate(89,110)" style="fill: #535353;"/><path d="M0,0 L2,0 L2,2 L3,2 L3,0 L4,0 L4,2 L5,2 L5,3 L4,3 L4,7 L5,7 L5,8 L3,8 L3,3 L2,3 L2,8 L0,8 Z " transform="translate(34,101)" style="fill: #636363;"/><path d="M0,0 L1,0 L1,1 L3,1 L3,2 L5,2 L5,3 L6,3 L6,5 L4,5 L4,6 L2,6 L2,7 L0,7 Z " transform="translate(68,101)" style="fill: #0F0F0F;"/><path d="M0,0 L3,0 L3,1 L4,1 L4,6 L0,6 L0,5 L-1,5 L-1,1 L0,1 Z " transform="translate(385,92)" style="fill: #666666;"/><path d="M0,0 L4,0 L4,1 L5,1 L5,6 L0,6 L0,5 L-1,5 L-1,3 L1,3 L1,2 L3,2 L3,1 L0,1 Z " transform="translate(16,58)" style="fill: #6D6D6D;"/><path d="M0,0 L2,0 L2,1 L3,1 L3,2 L5,2 L5,3 L6,3 L6,4 L5,4 L5,5 L4,5 L4,6 L2,6 L2,7 L0,7 Z " transform="translate(439,46)" style="fill: #0D0D0D;"/><path d="M0,0 L4,0 L4,1 L5,1 L5,5 L4,5 L4,6 L1,6 L1,5 L0,5 Z " transform="translate(395,26)" style="fill: #6D6D6D;"/><path d="M0,0 L2,0 L2,2 L3,2 L3,0 L4,0 L4,2 L5,2 L5,3 L4,3 L4,7 L5,7 L5,8 L3,8 L3,3 L2,3 L2,8 L0,8 Z " transform="translate(389,24)" style="fill: #616161;"/><path d="M0,0 L3,0 L3,1 L4,1 L4,6 L0,6 L0,5 L-1,5 L-1,1 L0,1 Z " transform="translate(146,15)" style="fill: #646464;"/><path d="M0,0 L2,0 L2,1 L3,1 L3,3 L4,3 L4,6 L5,6 L5,8 L3,8 L3,5 L0,5 L0,6 L-1,6 L-1,8 L-2,8 L-2,5 L-1,5 L-1,3 L0,3 Z " transform="translate(224,8)" style="fill: #535353;"/><path d="M0,0 L1,0 L1,2 L2,2 L2,3 L1,3 L1,7 L2,7 L2,8 L-3,8 L-3,3 L-1,3 L-1,2 L0,2 Z " transform="translate(157,361)" style="fill: #A3A3A3;"/><path d="M0,0 L7,0 L7,1 L6,1 L6,3 L5,3 L5,4 L4,4 L4,6 L2,6 L2,4 L1,4 L1,2 L0,2 Z " transform="translate(169,349)" style="fill: #0F0F0F;"/><path d="M0,0 L7,0 L7,1 L6,1 L6,3 L5,3 L5,5 L4,5 L4,6 L3,6 L3,5 L2,5 L2,4 L1,4 L1,2 L0,2 Z " transform="translate(209,298)" style="fill: #0B0B0B;"/><path d="M0,0 L1,0 L1,1 L3,1 L3,2 L5,2 L5,3 L6,3 L6,4 L5,4 L5,5 L4,5 L4,6 L2,6 L2,7 L0,7 Z " transform="translate(204,157)" style="fill: #0F0F0F;"/><path d="M0,0 L2,0 L2,1 L4,1 L4,2 L6,2 L6,4 L4,4 L4,5 L3,5 L3,6 L1,6 L1,7 L0,7 Z " transform="translate(204,140)" style="fill: #101010;"/><path d="M0,0 L4,0 L4,2 L2,2 L2,6 L0,6 L0,4 L-5,4 L-5,5 L-6,5 L-6,2 L-5,2 L-5,3 L-2,3 L-2,1 L-1,1 L-1,3 L0,3 Z " transform="translate(36,119)" style="fill: #606060;"/><path d="M0,0 L3,0 L3,1 L4,1 L4,5 L3,5 L3,6 L0,6 L0,5 L-1,5 L-1,1 L0,1 Z " transform="translate(403,92)" style="fill: #666666;"/><path d="M0,0 L1,0 L1,1 L3,1 L3,2 L4,2 L4,3 L6,3 L6,4 L5,4 L5,5 L4,5 L4,6 L2,6 L2,7 L0,7 L0,4 L-1,4 L-1,3 L0,3 Z " transform="translate(135,45)" style="fill: #0F0F0F;"/><path d="M0,0 L2,0 L2,1 L3,1 L3,4 L4,4 L4,6 L5,6 L5,8 L3,8 L3,5 L2,5 L2,8 L0,8 Z " transform="translate(21,23)" style="fill: #565656;"/><path d="M0,0 L3,0 L3,1 L4,1 L4,0 L5,0 L5,1 L6,1 L6,0 L7,0 L7,1 L8,1 L8,2 L7,2 L7,6 L8,6 L8,7 L6,7 L6,6 L5,6 L5,4 L4,4 L4,3 L3,3 L3,2 L0,2 Z " transform="translate(293,14)" style="fill: #9E9E9E;"/><path d="M0,0 L6,0 L6,2 L4,2 L4,9 L2,9 L2,2 L0,2 Z " transform="translate(228,7)" style="fill: #6A6A6A;"/><path d="M0,0 L1,0 L1,1 L2,1 L2,5 L3,5 L3,1 L4,1 L4,0 L6,0 L6,4 L5,4 L5,3 L4,3 L4,6 L3,6 L3,8 L2,8 L2,7 L1,7 L1,4 L0,4 Z " transform="translate(136,361)" style="fill: #464646;"/><path d="M0,0 L7,0 L7,2 L6,2 L6,4 L5,4 L5,5 L4,5 L4,6 L3,6 L3,4 L2,4 L2,3 L1,3 L1,1 L0,1 Z " transform="translate(375,322)" style="fill: #0D0D0D;"/><path d="M0,0 L2,0 L2,2 L1,2 L1,6 L-1,6 L-1,4 L-2,4 L-2,6 L-3,6 L-3,4 L-6,4 L-6,5 L-7,5 L-7,2 L-6,2 L-6,3 L-3,3 L-3,1 L-2,1 L-2,3 L-1,3 L-1,1 L0,1 Z " transform="translate(186,262)" style="fill: #5B5B5B;"/><path d="M0,0 L2,0 L2,1 L3,1 L3,6 L1,6 L1,7 L-1,7 L-1,6 L-2,6 L-2,4 L-1,4 L-1,3 L1,3 L1,2 L-2,2 L-2,1 L0,1 Z " transform="translate(23,119)" style="fill: #656565;"/><path d="M0,0 L5,0 L5,1 L2,1 L2,2 L4,2 L4,3 L5,3 L5,7 L4,7 L4,8 L1,8 L1,7 L0,7 L0,6 L2,6 L2,7 L3,7 L3,6 L4,6 L4,4 L0,4 Z " transform="translate(43,56)" style="fill: #4F4F4F;"/><path d="M0,0 L4,0 L4,2 L5,2 L5,5 L4,5 L4,6 L3,6 L3,5 L0,5 Z " transform="translate(356,357)" style="fill: #999999;"/><path d="M0,0 L3,0 L3,1 L4,1 L4,7 L3,7 L3,5 L0,5 L0,4 L-1,4 L-1,1 L0,1 Z " transform="translate(265,332)" style="fill: #6A6A6A;"/><path d="M0,0 L1,0 L1,1 L2,1 L2,0 L4,0 L4,7 L2,7 L2,6 L1,6 L1,5 L0,5 Z " transform="translate(461,312)" style="fill: #AAAAAA;"/><path d="M0,0 L2,0 L2,1 L4,1 L4,2 L6,2 L6,4 L4,4 L4,5 L2,5 L2,6 L0,6 Z " transform="translate(264,225)" style="fill: #131313;"/><path d="M0,0 L4,0 L4,1 L1,1 L1,3 L4,3 L4,8 L0,8 L0,7 L-1,7 L-1,6 L1,6 L1,7 L3,7 L3,4 L1,4 L1,5 L-1,5 L-1,1 L0,1 Z " transform="translate(185,131)" style="fill: #505050;"/><path d="M0,0 L1,0 L1,1 L3,1 L3,2 L5,2 L5,3 L6,3 L6,4 L5,4 L5,5 L3,5 L3,6 L1,6 L1,7 L0,7 Z " transform="translate(69,118)" style="fill: #080808;"/><path d="M0,0 L6,0 L6,1 L2,1 L2,3 L6,3 L6,4 L2,4 L2,8 L0,8 Z " transform="translate(380,24)" style="fill: #505050;"/><path d="M0,0 L6,0 L6,2 L5,2 L5,4 L4,4 L4,6 L2,6 L2,4 L1,4 L1,2 L0,2 Z " transform="translate(85,12)" style="fill: #0B0B0B;"/><path d="M0,0 L2,0 L2,6 L-1,6 L-1,5 L-2,5 L-2,4 L-3,4 L-3,2 L-2,2 L-2,1 L0,1 Z " transform="translate(234,325)" style="fill: #0D0D0D;"/><path d="M0,0 L1,0 L1,1 L2,1 L2,5 L3,5 L3,1 L4,1 L4,0 L6,0 L6,3 L4,3 L4,6 L3,6 L3,8 L2,8 L2,7 L1,7 L1,3 L0,3 Z " transform="translate(435,234)" style="fill: #464646;"/><path d="M0,0 L4,0 L4,1 L5,1 L5,4 L4,4 L4,5 L0,5 Z " transform="translate(447,235)" style="fill: #F4F4F4;"/><path d="M0,0 L4,0 L4,1 L1,1 L1,2 L3,2 L3,3 L4,3 L4,7 L3,7 L3,8 L0,8 L0,7 L-1,7 L-1,6 L1,6 L1,7 L2,7 L2,6 L3,6 L3,4 L-1,4 L-1,2 L0,2 Z " transform="translate(18,131)" style="fill: #474747;"/><path d="M0,0 L1,0 L1,1 L2,1 L2,0 L5,0 L5,1 L4,1 L4,6 L3,6 L3,5 L2,5 L2,3 L-3,3 L-3,4 L-4,4 L-4,1 L-3,1 L-3,2 L0,2 Z " transform="translate(231,125)" style="fill: #575757;"/><path d="M0,0 L3,0 L3,1 L4,1 L4,0 L5,0 L5,1 L6,1 L6,0 L7,0 L7,1 L8,1 L8,2 L7,2 L7,6 L8,6 L8,7 L6,7 L6,3 L5,3 L5,4 L4,4 L4,3 L3,3 L3,2 L0,2 Z " transform="translate(441,14)" style="fill: #8D8D8D;"/><path d="M0,0 L3,0 L3,1 L2,1 L2,6 L-2,6 L-2,1 L-1,1 L-1,2 L0,2 Z " transform="translate(152,363)" style="fill: #777777;"/><path d="M0,0 L3,0 L3,1 L4,1 L4,5 L3,5 L3,6 L0,6 Z " transform="translate(374,91)" style="fill: #FCFCFC;"/><path d="M0,0 L7,0 L7,2 L6,2 L6,3 L5,3 L5,4 L3,4 L3,7 L2,7 L2,8 L1,8 L1,5 L2,5 L2,3 L3,3 L3,2 L4,2 L4,1 L0,1 Z " transform="translate(325,38)" style="fill: #707070;"/><path d="M0,0 L2,0 L2,1 L1,1 L1,2 L4,2 L4,1 L5,1 L5,5 L4,5 L4,6 L1,6 L1,5 L0,5 Z " transform="translate(352,27)" style="fill: #646464;"/><path d="M0,0 L1,0 L1,1 L4,1 L4,0 L5,0 L5,5 L1,5 L1,4 L0,4 Z " transform="translate(284,126)" style="fill: #636363;"/><path d="M0,0 L1,0 L1,8 L0,8 L0,6 L-4,6 L-4,5 L-3,5 L-3,3 L-2,3 L-2,2 L-1,2 L-1,1 L0,1 Z " transform="translate(110,36)" style="fill: #545454;"/><path d="M0,0 L1,0 L1,2 L2,2 L2,1 L4,1 L4,2 L5,2 L5,7 L3,7 L3,3 L1,3 L1,7 L0,7 Z " transform="translate(346,25)" style="fill: #4F4F4F;"/><path d="M0,0 L3,0 L3,2 L2,2 L2,3 L3,3 L3,6 L-1,6 L-1,3 L0,3 L0,2 L-1,2 L-1,1 L0,1 Z " transform="translate(152,15)" style="fill: #777777;"/><path d="M0,0 L3,0 L3,1 L4,1 L4,6 L2,6 L2,4 L0,4 L0,6 L-1,6 L-1,3 L2,3 L2,1 L1,1 L1,2 L-1,2 L-1,1 L0,1 Z " transform="translate(171,262)" style="fill: #4B4B4B;"/><path d="M0,0 L3,0 L3,2 L2,2 L2,3 L1,3 L1,4 L4,4 L4,5 L3,5 L3,6 L0,6 L0,5 L-1,5 L-1,1 L0,1 Z " transform="translate(398,227)" style="fill: #F5F5F5;"/><path d="M0,0 L4,0 L4,1 L1,1 L1,2 L5,2 L5,3 L1,3 L1,5 L3,5 L3,4 L4,4 L4,6 L0,6 L0,4 L-1,4 L-1,1 L0,1 Z " transform="translate(240,208)" style="fill: #444444;"/><path d="M0,0 L1,0 L1,5 L2,5 L2,6 L1,6 L1,8 L0,8 L0,6 L-3,6 L-3,4 L-2,4 L-2,2 L-1,2 L-1,1 L0,1 Z " transform="translate(113,95)" style="fill: #474747;"/><path d="M0,0 L6,0 L6,2 L7,2 L7,3 L6,3 L6,4 L5,4 L5,5 L3,5 L3,3 L4,3 L4,2 L0,2 Z " transform="translate(424,34)" style="fill: #898989;"/><path d="M0,0 L3,0 L3,1 L5,1 L5,0 L8,0 L8,3 L7,3 L7,1 L6,1 L6,3 L5,3 L5,2 L4,2 L4,3 L0,3 Z " transform="translate(281,332)" style="fill: #888888;"/><path d="M0,0 L2,0 L2,8 L0,8 L0,6 L-1,6 L-1,7 L-2,7 L-2,5 L0,5 Z " transform="translate(263,235)" style="fill: #6E6E6E;"/><path d="M0,0 L2,0 L2,1 L4,1 L4,7 L3,7 L3,8 L1,8 L1,7 L2,7 L2,4 L1,4 L1,1 L0,1 Z " transform="translate(91,110)" style="fill: #E5E5E5;"/><path d="M0,0 L3,0 L3,1 L4,1 L4,5 L3,5 L3,4 L2,4 L2,5 L0,5 L0,2 L-1,2 L-1,1 L0,1 Z " transform="translate(309,15)" style="fill: #7C7C7C;"/><path d="M0,0 L1,0 L1,8 L-1,8 L-1,3 L-2,3 L-2,1 L0,1 Z " transform="translate(177,332)" style="fill: #666666;"/><path d="M0,0 L2,0 L2,9 L3,9 L3,10 L2,10 L2,11 L1,11 L1,3 L-1,3 L-1,1 L0,1 Z " transform="translate(211,320)" style="fill: #404040;"/><path d="M0,0 L2,0 L2,2 L1,2 L1,6 L0,6 L0,8 L-2,8 L-2,5 L-3,5 L-3,4 L0,4 Z " transform="translate(168,260)" style="fill: #505050;"/><path d="M0,0 L2,0 L2,1 L4,1 L4,4 L3,4 L3,5 L0,5 Z " transform="translate(100,260)" style="fill: #B9B9B9;"/><path d="M0,0 L2,0 L2,3 L3,3 L3,4 L2,4 L2,8 L0,8 Z " transform="translate(91,257)" style="fill: #808080;"/><path d="M0,0 L1,0 L1,8 L-1,8 L-1,3 L-2,3 L-2,1 L0,1 Z " transform="translate(181,131)" style="fill: #656565;"/><path d="M0,0 L2,0 L2,8 L0,8 L0,2 L-1,2 L-1,1 L0,1 Z " transform="translate(13,131)" style="fill: #656565;"/><path d="M0,0 L5,0 L5,1 L3,1 L3,6 L1,6 L1,3 L0,3 Z " transform="translate(379,92)" style="fill: #767676;"/><path d="M0,0 L2,0 L2,8 L0,8 L0,2 L-1,2 L-1,1 L0,1 Z " transform="translate(39,56)" style="fill: #676767;"/><path d="M0,0 L2,0 L2,8 L0,8 L0,3 L-1,3 L-1,2 L0,2 Z " transform="translate(177,36)" style="fill: #696969;"/><path d="M0,0 L1,0 L1,7 L0,7 L0,5 L-1,5 L-1,6 L-4,6 L-4,3 L-1,3 L-1,4 L0,4 Z " transform="translate(345,25)" style="fill: #E1E1E1;"/></svg>